<svg width="66" height="19" viewBox="0 0 66 19" fill="none" xmlns="http://www.w3.org/2000/svg">
<path d="M15.12 1.2L9.48 11.544V18H5.64V11.544L0 1.2H4.368L7.56 7.68L10.752 1.2H15.12ZM29.5699 15.816C27.8739 17.496 25.8099 18.336 23.3779 18.336C20.9459 18.336 18.8819 17.496 17.1859 15.816C15.4899 14.136 14.6419 12.064 14.6419 9.6C14.6419 7.136 15.4899 5.064 17.1859 3.384C18.8819 1.704 20.9459 0.863999 23.3779 0.863999C25.8099 0.863999 27.8739 1.704 29.5699 3.384C31.2659 5.064 32.1139 7.136 32.1139 9.6C32.1139 12.064 31.2659 14.136 29.5699 15.816ZM19.8739 13.2C20.8179 14.128 21.9859 14.592 23.3779 14.592C24.7699 14.592 25.9299 14.128 26.8579 13.2C27.8019 12.272 28.2739 11.072 28.2739 9.6C28.2739 8.128 27.8019 6.928 26.8579 6C25.9299 5.072 24.7699 4.608 23.3779 4.608C21.9859 4.608 20.8179 5.072 19.8739 6C18.9459 6.928 18.4819 8.128 18.4819 9.6C18.4819 11.072 18.9459 12.272 19.8739 13.2ZM40.9959 1.2C43.3159 1.2 45.2519 2.008 46.8039 3.624C48.3719 5.224 49.1559 7.216 49.1559 9.6C49.1559 11.984 48.3719 13.984 46.8039 15.6C45.2519 17.2 43.3159 18 40.9959 18H34.2759V1.2H40.9959ZM40.9959 14.304C42.3239 14.304 43.3959 13.88 44.2119 13.032C45.0439 12.168 45.4599 11.024 45.4599 9.6C45.4599 8.176 45.0439 7.04 44.2119 6.192C43.3959 5.328 42.3239 4.896 40.9959 4.896H38.1159V14.304H40.9959ZM61.3856 18L60.5456 15.36H54.3056L53.4656 18H49.2656L54.9776 1.2H59.8736L65.5856 18H61.3856ZM55.4576 11.76H59.3936L57.4256 5.592L55.4576 11.76Z" fill="#2D3436"/>
</svg>
