<svg width="40" height="40" viewBox="0 0 40 40" fill="none" xmlns="http://www.w3.org/2000/svg">
<rect width="40" height="40" rx="7" fill="#0010F7"/>
<path d="M32.168 15.44C31.1028 15.14 30.6377 15.095 30.6377 15.095C30.4577 15.065 29.7526 14.945 28.7924 14.915C28.0273 14.795 27.2322 14.585 26.7071 14.15C26.137 13.67 25.1768 12.845 24.8018 12.65C24.7868 12.635 24.7718 12.635 24.7568 12.635C23.3165 11.6 21.5612 11 19.6709 11C17.5106 11 15.5452 11.765 14.015 13.04C13.5799 13.37 13.0548 13.82 12.6948 14.135C12.1697 14.585 11.3746 14.78 10.6094 14.9C9.64928 14.93 8.94416 15.065 8.76413 15.08C8.76413 15.08 8.34406 15.125 7.3539 15.395C6.91883 15.515 6.87382 16.115 7.27889 16.31C7.27889 16.31 7.29389 16.31 7.29389 16.325C7.939 16.64 8.5541 17.15 9.31922 18.365C10.2344 19.805 10.3994 20.72 10.9845 22.1C11.9297 26.06 15.4552 29 19.6559 29C23.7066 29 27.1271 26.27 28.2223 22.535C28.9724 20.9 29.0775 19.955 30.0826 18.365C30.8477 17.15 31.4628 16.64 32.108 16.325C32.153 16.31 32.198 16.28 32.243 16.265C32.618 16.1 32.573 15.545 32.168 15.44ZM16.2354 22.37C15.0352 22.04 14.285 20.93 14.285 20.93C14.285 20.93 15.5752 19.985 16.7754 20.315C17.9756 20.645 18.6357 22.115 18.6357 22.115C18.6357 22.115 17.4356 22.7 16.2354 22.37ZM23.3765 22.37C22.1763 22.7 20.9761 22.1 20.9761 22.1C20.9761 22.1 21.6212 20.63 22.8364 20.3C24.0366 19.97 25.3268 20.915 25.3268 20.915C25.3268 20.915 24.5767 22.055 23.3765 22.37Z" fill="white"/>
</svg>
