<?xml version="1.0" standalone="no"?>
<!DOCTYPE svg PUBLIC "-//W3C//DTD SVG 20010904//EN"
 "http://www.w3.org/TR/2001/REC-SVG-20010904/DTD/svg10.dtd">
<svg version="1.0" xmlns="http://www.w3.org/2000/svg"
 width="700.000000pt" height="700.000000pt" viewBox="0 0 700.000000 700.000000"
 preserveAspectRatio="xMidYMid meet">
<metadata>
Created by potrace 1.14, written by Peter Selinger 2001-2017
</metadata>
<g transform="translate(0.000000,700.000000) scale(0.100000,-0.100000)"
fill="#000000" stroke="none">
<path d="M3382 6869 c-99 -9 -212 -38 -308 -77 -78 -33 -2123 -1209 -2219
-1277 -169 -120 -317 -317 -384 -514 -58 -168 -54 -88 -58 -1451 -3 -867 -1
-1281 7 -1340 39 -303 198 -570 444 -744 83 -59 2080 -1210 2184 -1258 46 -22
127 -51 180 -65 86 -23 116 -26 262 -26 146 0 176 3 262 26 53 14 134 43 180
65 91 42 2021 1151 2158 1240 97 62 226 187 289 281 57 83 125 228 150 318 41
150 42 203 39 1503 -5 1360 -1 1269 -62 1449 -71 204 -227 410 -403 529 -89
60 -2088 1211 -2169 1248 -104 49 -231 82 -352 94 -59 5 -109 9 -112 9 -3 -1
-42 -5 -88 -10z m448 -1812 c319 -76 527 -192 910 -508 107 -88 249 -132 489
-154 286 -25 520 -74 554 -116 40 -50 15 -94 -86 -146 -190 -99 -391 -380
-531 -743 -31 -80 -74 -188 -96 -240 -21 -52 -55 -137 -75 -189 -178 -470
-535 -815 -1005 -972 -317 -106 -688 -108 -1005 -4 -491 159 -879 545 -1036
1031 -49 155 -177 479 -231 589 -60 121 -177 298 -253 382 -31 34 -90 85 -133
112 -125 82 -132 88 -132 127 0 67 14 78 152 113 95 24 256 48 418 61 243 19
358 62 510 187 314 259 473 355 714 432 180 58 284 71 521 67 182 -3 224 -7
315 -29z"/>
<path d="M2805 3453 c-63 -9 -143 -36 -217 -75 l-78 -40 19 -27 c11 -15 42
-48 69 -74 147 -137 317 -195 493 -168 90 14 199 49 199 64 0 24 -84 138 -145
196 -99 96 -224 141 -340 124z"/>
<path d="M4067 3449 c-62 -14 -137 -58 -195 -113 -61 -57 -157 -195 -145 -207
18 -18 133 -50 218 -61 179 -22 322 31 469 173 53 52 86 91 82 98 -13 21 -148
82 -224 102 -80 20 -143 23 -205 8z"/>
</g>
</svg>
