<svg width="418" height="333" viewBox="0 0 418 333" fill="none" xmlns="http://www.w3.org/2000/svg">
<g clip-path="url(#clip0)">
<path d="M308.988 73.5599C311.576 73.5599 313.674 71.4618 313.674 68.8737C313.674 66.2855 311.576 64.1874 308.988 64.1874C306.4 64.1874 304.302 66.2855 304.302 68.8737C304.302 71.4618 306.4 73.5599 308.988 73.5599Z" fill="#B2BEC3"/>
<path d="M313.962 60.5648C315.168 60.5648 316.147 59.5865 316.147 58.3798C316.147 57.173 315.168 56.1948 313.962 56.1948C312.755 56.1948 311.777 57.173 311.777 58.3798C311.777 59.5865 312.755 60.5648 313.962 60.5648Z" fill="#B2BEC3"/>
<path d="M170.7 32.1309C171.939 32.1309 172.943 31.1269 172.943 29.8884C172.943 28.6499 171.939 27.6459 170.7 27.6459C169.462 27.6459 168.458 28.6499 168.458 29.8884C168.458 31.1269 169.462 32.1309 170.7 32.1309Z" fill="#B2BEC3"/>
<path d="M317.44 294.59C319.536 294.59 321.235 292.891 321.235 290.795C321.235 288.699 319.536 287 317.44 287C315.344 287 313.645 288.699 313.645 290.795C313.645 292.891 315.344 294.59 317.44 294.59Z" fill="#B2BEC3"/>
<path d="M144.739 307.585C145.707 307.585 146.493 306.799 146.493 305.831C146.493 304.862 145.707 304.077 144.739 304.077C143.77 304.077 142.985 304.862 142.985 305.831C142.985 306.799 143.77 307.585 144.739 307.585Z" fill="#B2BEC3"/>
<path d="M166.646 178.037C167.647 178.037 168.458 177.226 168.458 176.226C168.458 175.226 167.647 174.415 166.646 174.415C165.646 174.415 164.835 175.226 164.835 176.226C164.835 177.226 165.646 178.037 166.646 178.037Z" fill="#B2BEC3"/>
<path d="M170.212 187.266C171.18 187.266 171.965 186.481 171.965 185.512C171.965 184.544 171.18 183.758 170.212 183.758C169.243 183.758 168.458 184.544 168.458 185.512C168.458 186.481 169.243 187.266 170.212 187.266Z" fill="#0010F7"/>
<path d="M168.113 236.141C169.923 236.141 171.39 234.673 171.39 232.863C171.39 231.053 169.923 229.586 168.113 229.586C166.302 229.586 164.835 231.053 164.835 232.863C164.835 234.673 166.302 236.141 168.113 236.141Z" fill="#0010F7"/>
<path d="M306.372 49.8694C307.515 49.8694 308.442 48.9426 308.442 47.7994C308.442 46.6561 307.515 45.7294 306.372 45.7294C305.228 45.7294 304.302 46.6561 304.302 47.7994C304.302 48.9426 305.228 49.8694 306.372 49.8694Z" fill="#0010F7"/>
<path d="M227.625 53.4923C228.626 53.4923 229.437 52.6813 229.437 51.681C229.437 50.6807 228.626 49.8698 227.625 49.8698C226.625 49.8698 225.814 50.6807 225.814 51.681C225.814 52.6813 226.625 53.4923 227.625 53.4923Z" fill="#0010F7"/>
<path d="M66.136 195.172C66.8982 195.172 67.516 194.555 67.516 193.792C67.516 193.03 66.8982 192.412 66.136 192.412C65.3739 192.412 64.756 193.03 64.756 193.792C64.756 194.555 65.3739 195.172 66.136 195.172Z" fill="#0010F7"/>
<path d="M312.639 304.077C314.544 304.077 316.089 302.533 316.089 300.627C316.089 298.722 314.544 297.177 312.639 297.177C310.734 297.177 309.189 298.722 309.189 300.627C309.189 302.533 310.734 304.077 312.639 304.077Z" fill="#0010F7"/>
<path d="M349.582 8.69964C350.582 8.69964 351.393 7.88872 351.393 6.8884C351.393 5.88807 350.582 5.07715 349.582 5.07715C348.582 5.07715 347.771 5.88807 347.771 6.8884C347.771 7.88872 348.582 8.69964 349.582 8.69964Z" fill="#0010F7"/>
<path d="M173.604 88.3082C173.316 86.5257 173.058 82.9607 175.904 83.2482C176.939 83.3632 177.514 84.2832 178.664 83.8807C180.82 83.1332 180.331 80.3445 181.223 78.7345C182.689 76.147 185.535 79.9132 187.72 78.677C188.439 78.2745 188.611 77.527 188.583 76.7507C188.525 73.847 191.084 74.0482 193.183 74.6232C193.729 74.767 193.959 73.9332 193.413 73.7895C191.285 73.2145 187.749 73.0132 187.663 76.0895C187.634 76.837 188.036 77.5845 186.944 78.0445C186.599 78.1882 186.024 78.0157 185.708 77.9295C184.96 77.6995 184.299 77.182 183.523 76.9807C182.516 76.6932 181.539 76.8945 180.849 77.6995C179.986 78.7345 180.015 80.1432 179.613 81.3507C179.181 82.6445 178.348 83.392 176.939 82.7595C176.364 82.5007 175.846 82.2707 175.185 82.357C172.224 82.7595 172.368 86.3532 172.741 88.5382C172.856 89.0845 173.69 88.8545 173.604 88.3082Z" fill="#0010F7"/>
<path d="M176.996 89.976C177.226 88.1935 178.664 87.4172 180.331 87.4172C181.222 87.4172 182.114 87.5609 182.976 87.2447C184.931 86.4972 184.557 84.3697 185.017 82.7022C185.88 79.5397 189.876 81.4947 192.09 80.9772C193.585 80.6034 194.85 79.1084 194.217 77.5272C194.016 77.0097 193.182 77.2397 193.384 77.7572C194.361 80.1434 191.026 80.2872 189.617 80.1147C188.582 79.9997 187.576 79.8272 186.541 80.0859C184.902 80.5172 184.27 81.7247 184.04 83.2772C183.839 84.7147 183.867 86.2959 181.999 86.5259C180.992 86.6409 179.986 86.3534 178.98 86.5834C177.37 86.9572 176.335 88.3084 176.134 89.9185C176.047 90.5222 176.91 90.5222 176.996 89.976Z" fill="#0010F7"/>
<path d="M236.393 19.3662C235.387 20.6312 234.323 22.1837 234.812 23.8799C235.214 25.2599 236.307 25.7774 237.629 25.6912C238.406 25.6337 239.211 25.4324 239.843 26.1224C240.332 26.6399 240.016 27.7324 239.872 28.3074C239.642 29.1987 239.211 30.0612 239.297 31.0099C239.441 32.3037 240.476 33.3099 241.798 33.0224C242.344 32.9074 242.114 32.0737 241.568 32.1887C239.067 32.7637 240.792 28.5949 240.907 27.5887C240.993 26.7549 240.849 25.8349 240.217 25.2312C239.584 24.6274 238.808 24.6849 238.003 24.7712C236.738 24.9149 235.559 24.5124 235.502 22.9887C235.473 21.8387 236.278 20.8037 236.968 19.9412C237.371 19.5674 236.738 18.9349 236.393 19.3662Z" fill="#0010F7"/>
<path d="M243.179 18.935C241.828 19.51 240.966 20.9187 241.311 22.385C241.483 23.0462 241.886 23.6787 242.461 24.0812C243.151 24.5987 243.956 24.4837 244.646 24.915C245.939 25.6912 244.904 27.215 244.962 28.4225C244.991 29.0262 245.134 29.5725 245.652 29.9462C246.428 30.55 247.578 30.3487 247.894 29.3712C248.067 28.8537 247.233 28.6237 247.061 29.1412C245.968 28.9975 245.594 28.5087 245.911 27.675C245.968 27.3875 246.026 27.1 246.083 26.8125C246.141 26.525 246.169 26.2375 246.169 25.95C246.169 25.3462 245.997 24.7137 245.537 24.2825C244.847 23.65 243.783 23.9087 243.036 23.3912C241.512 22.3275 242.058 20.315 243.611 19.6537C244.128 19.4525 243.668 18.7337 243.179 18.935Z" fill="#0010F7"/>
<path d="M55.1824 188.876C54.5212 187.841 54.5212 186.576 55.1824 185.512C55.8437 184.477 56.7637 184.448 57.8274 184.046C59.2937 183.442 59.3224 181.918 59.2362 180.538C59.2074 180.05 59.1787 179.532 59.3224 179.043C59.6962 177.893 60.6737 178.21 61.5649 178.353C62.0824 178.44 62.5712 178.353 63.0024 178.066C63.5487 177.692 63.8937 177.031 64.0662 176.398C64.2099 175.881 64.2387 175.335 64.3537 174.817C64.4112 174.443 64.5262 174.098 64.6987 173.782C65.1587 173.063 65.7049 173.006 66.3662 173.638C66.5099 174.185 67.3437 173.955 67.1999 173.408C66.6824 171.54 64.3824 172.373 63.8074 173.696C63.5487 174.3 63.5199 174.961 63.3762 175.593C63.2899 175.967 63.2324 176.37 63.0312 176.715C62.5999 177.491 61.7949 177.347 61.0474 177.261C60.1562 177.175 59.4662 177.088 58.8912 177.922C58.2299 178.871 58.4024 179.992 58.4024 181.085C58.4312 182.407 58.1437 182.925 56.8499 183.356C56.3324 183.528 55.9012 183.615 55.4412 183.96C53.7737 185.138 53.3424 187.582 54.4349 189.278C54.7224 189.767 55.4699 189.336 55.1824 188.876Z" fill="#B2BEC3"/>
<path d="M58.7764 190.859C57.5689 190.687 58.0289 189.364 58.5752 188.847C58.9777 188.473 59.5239 188.243 60.0414 187.984C60.6739 187.668 61.3064 187.294 61.7664 186.748C63.0027 185.196 61.2202 183.126 62.9452 181.889C64.6702 180.682 69.2989 180.136 67.9477 176.916C67.7464 176.398 66.9989 176.858 67.2002 177.347C68.1777 179.676 63.4339 180.366 62.2264 181.343C61.7952 181.688 61.4214 182.148 61.2489 182.694C60.9039 183.902 61.9102 185.138 61.0189 186.288C59.9839 187.553 57.7702 187.553 57.2527 189.336C56.9364 190.342 57.4827 191.549 58.5752 191.722C59.0927 191.779 59.3227 190.946 58.7764 190.859Z" fill="#B2BEC3"/>
<path d="M373.933 124.045C373.559 123.384 373.617 122.665 374.019 122.032C374.652 121.112 375.399 121.313 376.377 121.4C377.038 121.457 377.642 121.601 378.274 121.227C379.396 120.537 379.223 119.1 379.424 118.007C379.884 115.448 382.098 117.777 383.593 116.972C384.139 116.685 384.341 116.138 384.456 115.563C384.657 114.442 384.714 111.107 386.871 112.458C387.331 112.746 387.791 111.998 387.302 111.711C385.376 110.532 383.823 112.487 383.651 114.298C383.536 115.333 383.651 116.34 382.271 116.196C381.782 116.138 381.293 115.88 380.804 115.822C380.028 115.736 379.338 115.966 378.907 116.656C378.418 117.461 378.591 118.467 378.389 119.33C377.958 121.285 376.291 120.192 374.939 120.422C373.128 120.738 372.294 122.923 373.157 124.447C373.444 124.965 374.192 124.534 373.933 124.045Z" fill="#B2BEC3"/>
<path d="M378.218 125.856C377.729 124.533 379.253 123.067 380.575 123.757C380.748 123.843 380.978 123.843 381.093 123.7C381.754 122.981 381.926 122.147 382.214 121.227C382.731 119.56 383.968 119.33 385.463 118.87C386.929 118.41 388.568 117.202 387.964 115.477C387.763 114.96 386.929 115.19 387.13 115.707C387.964 117.978 383.881 118.151 382.674 118.985C381.208 120.02 381.639 121.888 380.518 123.096C380.69 123.067 380.863 123.038 381.035 123.038C379.109 122.032 376.665 124.016 377.413 126.115C377.585 126.603 378.419 126.402 378.218 125.856Z" fill="#B2BEC3"/>
<path d="M262.096 133.389C262.153 133.389 262.786 134.941 263.045 135.142C263.447 135.459 263.936 135.487 264.425 135.401C265.287 135.257 265.833 134.625 266.581 134.222C268.191 133.302 268.191 134.884 268.823 135.775C269.542 136.839 270.318 136.321 271.152 135.804C271.698 135.459 272.216 135.229 272.705 135.717C272.963 135.976 273.136 136.407 273.337 136.724C273.653 137.184 273.998 137.557 274.516 137.787C275.005 138.017 275.465 137.27 274.947 137.04C273.768 136.522 273.625 134.567 272.216 134.366C271.555 134.28 271.267 134.654 270.75 134.941C270.117 135.315 269.743 135.574 269.341 134.855C269.168 134.567 269.14 134.165 268.938 133.877C268.018 132.354 266.581 133.187 265.431 133.935C265.23 134.079 265.028 134.222 264.798 134.337C264.31 134.194 263.792 134.05 263.303 133.906C263.102 133.705 263.102 133.216 262.93 132.957C262.642 132.555 262.355 132.44 261.895 132.526C261.32 132.641 261.55 133.475 262.096 133.389Z" fill="#B2BEC3"/>
<path d="M268.853 130.629C269.715 129.277 271.699 132.095 272.504 132.44C272.993 132.641 273.453 132.641 273.97 132.497C274.2 132.44 274.401 132.325 274.603 132.239C275.379 131.922 276.04 132.124 276.673 132.67C277.593 133.446 277.851 134.481 279.174 134.769C279.95 134.941 280.669 134.711 281.014 133.964C281.244 133.475 280.496 133.015 280.266 133.532C279.461 135.257 277.248 131.865 276.673 131.491C275.609 130.801 274.948 131.376 273.884 131.606C272.188 131.951 271.641 130.054 270.233 129.594C269.399 129.306 268.594 129.45 268.134 130.226C267.789 130.686 268.536 131.117 268.853 130.629Z" fill="#B2BEC3"/>
<path d="M376.292 180.883C391.558 180.883 406.824 180.883 422.119 180.883C422.666 180.883 422.666 180.021 422.119 180.021C406.853 180.021 391.587 180.021 376.292 180.021C375.746 180.021 375.746 180.883 376.292 180.883Z" fill="#DFE6E9"/>
<path d="M388.798 180.682C388.798 185.138 388.798 189.566 388.798 194.022C388.798 194.568 389.66 194.568 389.66 194.022C389.66 189.566 389.66 185.138 389.66 180.682C389.66 180.136 388.798 180.136 388.798 180.682Z" fill="#DFE6E9"/>
<path d="M410.131 180.251C410.131 174.041 410.131 167.831 410.131 161.621C410.131 161.075 409.268 161.075 409.268 161.621C409.268 167.831 409.268 174.041 409.268 180.251C409.268 180.826 410.131 180.826 410.131 180.251Z" fill="#DFE6E9"/>
<path d="M399.982 161.966C405.76 161.966 411.539 161.966 417.318 161.966C417.864 161.966 417.864 161.104 417.318 161.104C411.539 161.104 405.76 161.104 399.982 161.104C399.435 161.104 399.435 161.966 399.982 161.966Z" fill="#DFE6E9"/>
<path d="M388.625 58.4373C388.625 63.8135 388.625 69.1898 388.625 74.5373C388.625 75.0835 389.487 75.0835 389.487 74.5373C389.487 69.161 389.487 63.7848 389.487 58.4373C389.487 57.891 388.625 57.891 388.625 58.4373Z" fill="#DFE6E9"/>
<path d="M375.199 75.7738C385.578 75.7738 395.928 75.7738 406.307 75.7738C406.853 75.7738 406.853 74.9113 406.307 74.9113C395.928 74.9113 385.578 74.9113 375.199 74.9113C374.624 74.9113 374.624 75.7738 375.199 75.7738Z" fill="#DFE6E9"/>
<path d="M406.019 75.659C406.019 79.224 406.019 82.789 406.019 86.354C406.019 86.9002 406.881 86.9002 406.881 86.354C406.881 82.789 406.881 79.224 406.881 75.659C406.881 75.1127 406.019 75.1127 406.019 75.659Z" fill="#DFE6E9"/>
<path d="M117.283 41.676C127.432 41.676 137.609 41.676 147.758 41.676C148.304 41.676 148.304 40.8135 147.758 40.8135C137.609 40.8135 127.432 40.8135 117.283 40.8135C116.737 40.8135 116.708 41.676 117.283 41.676Z" fill="#DFE6E9"/>
<path d="M146.493 41.5896C146.493 44.3496 146.493 47.1096 146.493 49.8696C146.493 50.4159 147.356 50.4159 147.356 49.8696C147.356 47.1096 147.356 44.3496 147.356 41.5896C147.356 41.0146 146.493 41.0146 146.493 41.5896Z" fill="#DFE6E9"/>
<path d="M137.264 40.9002C137.264 36.4727 137.264 32.0739 137.264 27.6464C137.264 27.1002 136.402 27.1002 136.402 27.6464C136.402 32.0739 136.402 36.4727 136.402 40.9002C136.402 41.4752 137.264 41.4752 137.264 40.9002Z" fill="#DFE6E9"/>
<path d="M56.9941 130.283C64.0091 130.283 71.0241 130.283 78.0391 130.283C78.5854 130.283 78.5854 129.421 78.0391 129.421C71.0241 129.421 64.0091 129.421 56.9941 129.421C56.4478 129.421 56.4478 130.283 56.9941 130.283Z" fill="#DFE6E9"/>
<path d="M69.8453 121.63C69.8453 124.217 69.8453 126.805 69.8453 129.392C69.8453 129.939 70.7078 129.939 70.7078 129.392C70.7078 126.805 70.7078 124.217 70.7078 121.63C70.7078 121.084 69.8453 121.084 69.8453 121.63Z" fill="#DFE6E9"/>
<path d="M64.7851 122.061C68.5226 122.061 72.2601 122.061 75.9976 122.061C76.5438 122.061 76.5438 121.199 75.9976 121.199C72.2601 121.199 68.5226 121.199 64.7851 121.199C64.2101 121.199 64.2101 122.061 64.7851 122.061Z" fill="#DFE6E9"/>
<path d="M191.4 303.33C200.772 303.33 210.145 303.33 219.517 303.33C220.064 303.33 220.064 302.468 219.517 302.468C210.145 302.468 200.772 302.468 191.4 302.468C190.825 302.468 190.825 303.33 191.4 303.33Z" fill="#DFE6E9"/>
<path d="M208.708 302.467C208.708 300.455 208.708 298.442 208.708 296.401C208.708 295.855 207.845 295.855 207.845 296.401C207.845 298.413 207.845 300.426 207.845 302.467C207.845 303.042 208.708 303.042 208.708 302.467Z" fill="#DFE6E9"/>
<path d="M206.092 296.43C209.973 296.43 213.883 296.43 217.764 296.43C218.311 296.43 218.311 295.568 217.764 295.568C213.883 295.568 209.973 295.568 206.092 295.568C205.546 295.568 205.546 296.43 206.092 296.43Z" fill="#DFE6E9"/>
<path d="M57.6548 288.207C67.0273 288.207 76.3998 288.207 85.7723 288.207C86.3186 288.207 86.3186 287.345 85.7723 287.345C76.3998 287.345 67.0273 287.345 57.6548 287.345C57.1086 287.345 57.1086 288.207 57.6548 288.207Z" fill="#DFE6E9"/>
<path d="M70.6498 276.937C70.6498 280.244 70.6498 283.579 70.6498 286.885C70.6498 287.431 71.5123 287.431 71.5123 286.885C71.5123 283.579 71.5123 280.244 71.5123 276.937C71.5123 276.391 70.6498 276.391 70.6498 276.937Z" fill="#DFE6E9"/>
<path d="M70.6501 275.644C66.9126 275.644 63.1463 275.644 59.4088 275.644C58.8626 275.644 58.8626 276.506 59.4088 276.506C63.1463 276.506 66.9126 276.506 70.6501 276.506C71.1963 276.506 71.1963 275.644 70.6501 275.644Z" fill="#DFE6E9"/>
<path d="M370.197 262.907C369.248 261.958 369.478 260.118 370.944 259.802C371.72 259.63 372.468 260.118 373.215 260.205C373.79 260.291 374.394 260.233 374.768 259.716C375.343 258.968 374.883 258.106 374.854 257.272C374.797 254.656 377.902 254.828 379.454 255.748C379.799 255.95 380.173 255.605 380.087 255.26C379.339 251.666 383.45 249.193 386.268 251.58C386.699 251.925 387.303 251.321 386.872 250.976C383.393 248.043 378.304 251.033 379.253 255.518C379.454 255.346 379.684 255.202 379.885 255.03C378.563 254.225 376.867 253.822 375.458 254.713C374.94 255.03 374.48 255.518 374.25 256.093C374.078 256.496 373.992 256.87 374.02 257.301C374.049 258.077 374.308 258.02 373.733 258.767C373.1 259.601 373.043 259.227 372.152 259.026C371.835 258.94 371.548 258.882 371.203 258.911C370.484 258.94 369.823 259.285 369.363 259.802C368.357 260.923 368.615 262.505 369.622 263.511C369.995 263.913 370.599 263.31 370.197 262.907Z" fill="#DFE6E9"/>
<path d="M375.802 263.77C375.486 261.154 379.77 261.125 380.977 259.314C381.294 258.854 381.409 258.336 381.61 257.847C381.984 256.956 382.645 256.381 383.622 256.122C385.204 255.72 386.842 256.439 388.28 257.042C388.797 257.244 389.027 256.41 388.51 256.209C385.865 255.116 382.3 254.282 380.834 257.502C380.316 258.652 380.144 259.285 378.936 259.889C378.217 260.234 377.47 260.435 376.78 260.837C375.687 261.47 374.825 262.447 374.969 263.77C375.026 264.316 375.889 264.316 375.802 263.77Z" fill="#DFE6E9"/>
<path d="M252.149 180.165C252.724 181.602 253.299 183.068 253.874 184.506C253.931 184.333 254.018 184.19 254.075 184.017C253.759 184.218 253.443 184.42 253.126 184.65C252.638 183.5 252.839 183.212 253.759 183.73C254.305 184.075 254.564 184.822 254.679 185.426C254.938 186.806 254.65 188.243 254.19 189.566C254.075 189.911 254.42 190.141 254.708 190.083C256.433 189.738 257.123 191.808 256.778 193.102C256.519 194.051 256.001 194.885 255.484 195.718C255.196 196.178 255.944 196.61 256.231 196.15C257.151 194.712 258.215 192.93 257.583 191.147C257.094 189.825 255.886 188.991 254.478 189.25C254.65 189.422 254.823 189.595 254.995 189.767C255.57 188.1 255.944 186.001 255.225 184.305C254.736 183.183 253.615 182.321 252.35 182.695C251.373 182.982 250.884 183.96 251.344 184.909C252.12 186.49 253.471 185.426 254.478 184.765C254.621 184.679 254.736 184.448 254.679 184.276C254.104 182.839 253.529 181.372 252.954 179.935C252.781 179.446 251.948 179.647 252.149 180.165Z" fill="#DFE6E9"/>
<path d="M82.122 44.1488C81.5758 42.7688 83.4158 42.395 84.2783 42.8838C84.9395 43.2575 85.3708 43.9188 85.7733 44.5225C86.147 45.0688 86.5495 45.6725 86.7508 46.305C86.9808 46.8513 86.952 47.3688 86.6645 47.8863C85.6583 48.3463 85.1408 48.2313 85.112 47.57C84.8533 46.6213 85.8595 45.9888 86.722 46.0175C87.6133 46.0463 88.447 46.5638 89.0508 47.1963C90.0858 48.2888 90.4595 49.7263 90.3158 51.1925C90.5745 51.1063 90.862 51.0488 91.1208 50.9625C90.5458 50.1288 91.092 49.2375 91.8683 48.8063C92.5295 48.4613 93.277 48.5475 93.9095 48.8925C94.9445 49.4388 95.6632 50.445 96.3245 51.365C96.6407 51.825 97.3882 51.3938 97.072 50.9338C95.9795 49.41 94.3408 47.2825 92.1845 47.7713C90.6033 48.1163 89.3383 49.9563 90.3733 51.3938C90.632 51.7675 91.1208 51.595 91.1783 51.1638C91.437 48.4325 89.4245 44.695 86.2045 45.155C85.0545 45.3275 84.2208 46.1325 84.2208 47.3113C84.2208 48.2313 84.7958 49.18 85.7733 49.2375C86.9233 49.3238 87.6995 48.2025 87.757 47.1675C87.8433 45.73 86.722 44.1775 85.8595 43.1138C85.0545 42.165 83.8758 41.36 82.6108 41.8488C81.5758 42.2225 80.8858 43.2575 81.317 44.3213C81.4895 44.8963 82.3233 44.6663 82.122 44.1488Z" fill="#DFE6E9"/>
<path d="M233.577 86.3252C232.369 85.6064 233.232 83.4789 234.583 84.3702C235.877 85.2327 234.152 86.6989 233.318 85.6927C232.973 85.2614 232.369 85.8652 232.714 86.2964C233.375 87.1014 234.64 87.0439 235.388 86.3827C236.25 85.6064 236.02 84.3414 235.129 83.7089C234.238 83.0764 232.944 83.1914 232.398 84.2264C231.852 85.2039 232.225 86.5264 233.174 87.0727C233.605 87.3314 234.037 86.6127 233.577 86.3252Z" fill="#DFE6E9"/>
<path d="M325.174 23.4487C324.542 22.5574 325.634 21.2062 326.641 21.6087C326.554 21.5512 326.468 21.4649 326.382 21.4074C326.928 22.3562 326.123 23.6499 325.059 23.5924C325.203 23.7074 325.347 23.7937 325.462 23.9087C325.289 23.4199 325.088 22.9024 324.916 22.4137C324.714 21.8962 323.881 22.1262 324.082 22.6437C324.254 23.1324 324.456 23.6499 324.628 24.1387C324.686 24.3399 324.829 24.4549 325.031 24.4549C325.951 24.5124 326.756 23.9374 327.158 23.1324C327.474 22.4999 327.647 21.1774 326.871 20.7749C325.174 19.9412 323.421 22.4712 324.427 23.8799C324.743 24.3399 325.491 23.9087 325.174 23.4487Z" fill="#DFE6E9"/>
<path d="M348.577 66.1998C348.433 65.5385 348.922 64.8198 349.583 64.676C350.187 64.561 350.733 65.0498 350.877 65.596C351.251 66.8898 349.554 67.4935 348.749 66.6023C348.376 66.1998 347.772 66.8035 348.146 67.206C349.641 68.8735 352.516 67.2348 351.596 65.1073C351.193 64.1585 350.187 63.5548 349.181 63.871C348.117 64.216 347.484 65.3373 347.714 66.4298C347.887 66.976 348.721 66.746 348.577 66.1998Z" fill="#DFE6E9"/>
<path d="M255.254 304.164C254.161 303.646 254.248 302.151 255.254 301.576C256.231 301.03 257.151 301.519 258.043 301.921C258.79 302.266 259.653 302.583 260.314 301.921C260.918 301.346 260.803 300.455 260.831 299.708C260.946 296.804 263.764 297.379 265.69 298.098C266.208 298.299 266.438 297.465 265.92 297.264C264.224 296.603 261.866 295.97 260.515 297.638C260.113 298.127 259.998 298.702 259.969 299.305C259.94 299.708 260.113 300.599 259.883 300.973C259.25 301.921 258.388 301.059 257.726 300.771C256.461 300.225 254.65 300.369 253.874 301.691C253.213 302.813 253.615 304.336 254.794 304.883C255.311 305.141 255.743 304.394 255.254 304.164Z" fill="#DFE6E9"/>
<path d="M269.168 236.399C268.306 246.95 268.766 257.53 270.548 267.967C270.634 268.513 271.468 268.283 271.382 267.737C269.628 257.387 269.168 246.864 270.031 236.399C270.088 235.853 269.226 235.853 269.168 236.399Z" fill="#DFE6E9"/>
<path d="M269.743 237.06C274.228 238.613 278.857 239.648 283.572 240.165C288 240.625 293.088 241.114 297.343 239.447C297.861 239.245 297.631 238.412 297.113 238.613C292.973 240.252 287.942 239.763 283.572 239.303C278.943 238.814 274.372 237.75 269.973 236.227C269.427 236.025 269.226 236.859 269.743 237.06Z" fill="#DFE6E9"/>
<path d="M276.586 238.24C275.091 235.911 273.854 233.438 272.992 230.793C272.589 229.528 272.244 228.263 271.986 226.97C271.842 226.193 271.698 225.417 271.612 224.641C271.612 224.555 271.296 222.513 271.899 222.801C272.187 222.945 272.676 222.686 272.532 222.312C270.951 218.316 270.088 214.118 270.002 209.806C269.858 209.95 269.714 210.093 269.571 210.237C269.801 210.323 270.002 210.41 270.232 210.496C270.519 210.841 271.066 210.467 270.951 210.065C270.376 208.225 270.002 206.327 269.887 204.372C269.858 203.912 269.944 198.737 270.261 198.823C270.606 198.91 270.836 198.593 270.778 198.306C270.232 195.057 269.973 191.751 270.117 188.473C270.174 186.835 270.318 185.225 270.577 183.615C270.807 182.148 270.922 180.366 272.072 179.302C271.842 179.273 271.612 179.245 271.382 179.216C273.797 183.758 275.148 188.732 276.384 193.677C277.592 198.536 278.656 203.452 279.576 208.397C281.444 218.603 282.623 228.925 283.141 239.303C283.169 239.85 284.032 239.85 284.003 239.303C283.486 228.867 282.307 218.46 280.409 208.167C279.461 203.05 278.368 197.961 277.103 192.901C275.867 188.042 274.516 183.212 272.129 178.756C271.986 178.497 271.641 178.497 271.439 178.67C270.462 179.561 270.174 180.74 269.944 181.976C269.628 183.73 269.398 185.541 269.283 187.323C269.053 191.061 269.283 194.798 269.916 198.507C270.088 198.335 270.261 198.162 270.433 197.99C268.766 197.53 268.967 201.123 268.938 201.928C268.823 204.746 269.254 207.563 270.088 210.266C270.318 210.122 270.577 209.978 270.807 209.835C270.433 209.403 270.117 209.26 269.542 209.317C269.312 209.346 269.111 209.49 269.111 209.748C269.197 214.118 270.059 218.402 271.669 222.485C271.871 222.312 272.101 222.168 272.302 221.996C269.427 220.616 271.094 227.113 271.324 228.091C272.187 231.828 273.739 235.393 275.809 238.613C276.154 239.131 276.902 238.7 276.586 238.24Z" fill="#DFE6E9"/>
<path d="M281.157 209.518C280.898 207.678 280.84 205.809 281.07 203.969C281.128 203.509 282.22 198.104 282.767 198.334C283.054 198.478 283.399 198.306 283.428 197.961C283.6 194.281 284.751 191.003 286.102 187.611C287.453 184.247 288.776 180.998 291.018 178.094C290.817 178.094 290.616 178.094 290.414 178.094C292.053 179.963 291.852 182.809 291.938 185.138C292.053 187.754 292.139 190.371 292.168 192.987C292.226 198.133 292.139 203.279 291.909 208.426C291.421 218.948 290.242 229.442 288.459 239.821C288.373 240.367 289.207 240.597 289.293 240.051C291.162 229.241 292.341 218.287 292.829 207.304C293.059 201.784 293.117 196.264 293.002 190.744C292.944 187.984 292.887 185.224 292.686 182.464C292.571 180.653 292.283 178.871 291.018 177.462C290.874 177.289 290.558 177.289 290.414 177.462C288.201 180.337 286.821 183.499 285.498 186.863C284.032 190.486 282.795 193.993 282.594 197.961C282.824 197.846 283.025 197.702 283.255 197.587C281.502 196.811 280.927 200.548 280.697 201.554C280.064 204.257 280.007 206.988 280.409 209.719C280.38 210.294 281.214 210.064 281.157 209.518Z" fill="#DFE6E9"/>
<path d="M270.951 268.685C279.95 271.589 289.696 271.445 298.609 268.283C299.126 268.11 298.896 267.277 298.379 267.449C289.61 270.554 280.036 270.698 271.181 267.852C270.635 267.679 270.405 268.513 270.951 268.685Z" fill="#DFE6E9"/>
<path d="M297.228 239.159C297.573 243.817 297.947 248.474 298.263 253.132C298.58 257.876 298.695 262.677 297.918 267.392C297.832 267.938 298.666 268.168 298.752 267.622C299.528 262.993 299.471 258.336 299.155 253.678C298.838 248.848 298.465 243.989 298.091 239.159C298.062 238.613 297.2 238.613 297.228 239.159Z" fill="#DFE6E9"/>
<path d="M143.79 276.075C149.655 272.941 155.548 269.808 161.413 266.674C164.173 267.134 167.968 267.738 172.511 268.37C181.596 269.635 196.23 271.676 214.745 272.223C233.26 272.769 247.146 271.59 252.436 271.073C265.172 269.865 272.877 268.226 279.173 266.53C284.895 264.978 289.61 263.281 292.973 261.988C295.733 262.908 298.81 264.144 302.087 265.84C303.956 266.818 305.681 267.824 307.205 268.83C301.8 270.383 294.526 272.366 285.872 274.379C267.645 278.634 253.672 280.646 250.74 281.077C233.978 283.464 210.087 286.827 180.043 283.349C170.7 282.227 158.251 280.186 143.79 276.075Z" fill="white"/>
<path d="M143.473 276.104C143.617 277.312 143.789 278.49 143.933 279.698C146.089 280.302 149.252 281.164 153.162 282.027C160.637 283.694 168.227 284.844 178.146 285.62C214.773 288.495 244.041 285.937 244.041 285.937C258.674 284.643 272.877 283.32 291.219 277.973C298.119 275.96 303.754 273.919 307.779 272.338C307.463 270.987 307.147 269.635 306.831 268.284C305.709 268.744 304.042 269.405 302.001 270.153C288.143 275.213 276.729 276.88 266.552 278.117C244.184 280.877 233.001 282.228 216.584 282.487C197.897 282.803 172.827 281.682 143.473 276.104Z" fill="#111314"/>
<path d="M143.273 276.65C143.273 277.57 143.273 278.49 143.273 279.41C143.273 279.956 144.135 279.956 144.135 279.41C144.135 278.49 144.135 277.57 144.135 276.65C144.135 276.075 143.273 276.075 143.273 276.65Z" fill="#111314"/>
<path d="M143.589 280.216C165.065 286.023 187.49 286.771 209.599 287.087C230.845 287.374 252.235 286.454 273.165 282.573C284.953 280.388 296.568 277.197 307.78 272.856C308.298 272.654 308.068 271.821 307.55 272.022C287.77 279.698 266.754 283.608 245.623 285.247C224.319 286.886 202.814 286.512 181.51 285.218C168.774 284.413 156.153 282.746 143.819 279.411C143.273 279.238 143.043 280.072 143.589 280.216Z" fill="#111314"/>
<path d="M307.78 272.252C307.952 271.044 308.01 269.808 307.895 268.601C307.837 268.054 306.974 268.054 307.032 268.601C307.118 269.751 307.118 270.901 306.946 272.022C306.86 272.539 307.693 272.798 307.78 272.252Z" fill="#111314"/>
<path d="M143.962 276.564C150 273.689 155.922 270.613 161.73 267.278C162.219 266.99 161.787 266.272 161.299 266.53C155.491 269.837 149.569 272.942 143.531 275.817C143.014 276.047 143.445 276.794 143.962 276.564Z" fill="#111314"/>
<path d="M161.5 266.875C195.798 273.401 231.448 274.609 266.035 269.664C275.235 268.341 284.377 266.3 292.887 262.505C293.405 262.275 292.945 261.528 292.456 261.758C284.808 265.15 276.643 267.134 268.392 268.428C259.997 269.75 251.516 270.555 243.035 271.101C225.813 272.194 208.506 271.906 191.342 270.268C181.395 269.319 171.533 267.881 161.73 266.041C161.183 265.955 160.953 266.789 161.5 266.875Z" fill="#111314"/>
<path d="M292.716 262.362C297.833 264.029 302.635 266.358 307.12 269.319C307.58 269.635 308.011 268.888 307.551 268.572C303.008 265.582 298.121 263.224 292.946 261.528C292.399 261.355 292.169 262.189 292.716 262.362Z" fill="#111314"/>
<path d="M144.021 276.104C154.169 279.525 164.749 281.135 175.387 281.998C186.168 282.861 197.036 283.119 207.846 283.119C229.322 283.119 250.856 281.653 272.016 277.8C284.033 275.615 295.936 272.654 307.522 268.773C308.039 268.6 307.809 267.767 307.292 267.939C286.908 274.724 265.719 278.692 244.329 280.647C223.054 282.602 201.549 282.717 180.217 281.452C168.027 280.704 155.808 279.18 144.193 275.27C143.733 275.098 143.503 275.932 144.021 276.104Z" fill="#111314"/>
<path d="M160.58 111.913C195.712 103.777 231.88 101.994 267.817 101.649C277.995 101.534 288.172 101.563 298.35 101.563C298.896 101.563 298.896 100.7 298.35 100.7C262.297 100.643 226.072 100.614 190.278 105.588C180.216 106.997 170.24 108.779 160.35 111.079C159.803 111.223 160.033 112.057 160.58 111.913Z" fill="#111314"/>
<path d="M300.132 100.786C300.506 114.155 300.736 129.651 300.65 146.873C300.592 156.878 300.506 152.105 299.615 193.735C299.097 217.713 298.953 226.74 297.257 240.598C296.165 249.625 294.842 257.043 293.865 262.074C301.282 264.144 308.355 266.099 314.565 267.824C324.167 270.498 326.726 271.216 330.55 271.763C336.472 272.568 343.688 272.683 352.026 270.986C355.102 245.801 356.798 224.325 357.776 207.88C361.283 150.093 358.006 123.47 356.741 114.126C355.016 101.534 352.888 91.1838 351.25 84.025C345.097 85.2038 340.095 86.4688 336.587 87.4175C324.541 90.7238 314.996 94.605 307.003 97.8825C304.042 99.1188 301.656 100.125 300.132 100.786Z" fill="white"/>
<path d="M101.93 84.5427C101.7 87.0152 101.441 90.0627 101.211 92.7077C96.4386 147.131 94.0523 174.358 93.2761 191.866C92.4711 210.669 92.4136 237.924 96.4098 271.82C96.7261 272.51 97.3011 273.459 98.3361 274.235C99.6873 275.241 100.924 275.213 103.367 275.903C105.294 276.449 106.3 276.995 107.22 277.34C109.865 278.375 115.787 279.554 123.32 279.266C134.13 278.835 142.439 275.529 148.534 273.028C154.255 270.699 158.826 268.198 161.989 266.3C160.206 250.286 158.884 233.381 158.136 215.643C156.612 177.923 158.136 143.279 161.27 112.401C159.947 111.884 158.021 111.165 155.75 110.245C151.84 108.664 142.467 104.84 125.965 96.7902C119.439 93.6277 111.274 89.5164 101.93 84.5427Z" fill="white"/>
<path d="M351.077 83.9103C351.422 85.8078 351.882 88.4241 352.4 91.5578C353.118 96.0141 354.728 106.565 355.907 120.423C357.115 134.855 357.402 147.275 357.431 157.165C357.517 177.233 356.77 191.953 354.815 226.28C354.211 236.975 353.32 252.644 352.198 271.763C353.377 271.677 354.527 271.619 355.706 271.533C356.281 266.76 357.057 259.659 357.661 250.977C358.121 244.709 358.322 240.138 358.523 235.222C359.53 212.682 359.702 212.94 360.047 203.74C360.737 185.599 360.593 171.655 360.478 159.12C360.392 150.467 360.133 142.273 359.616 125.885C359.242 114.73 358.868 104.84 356.338 91.9891C355.677 88.7116 355.045 85.9803 354.585 84.1116C353.406 84.0541 352.256 83.9966 351.077 83.9103Z" fill="#111314"/>
<path d="M97.5317 85.0603C97.3304 86.0666 97.0142 87.6191 96.6979 89.5166C95.7779 95.0078 95.5479 99.1478 95.4617 100.499C94.8292 110.274 93.5642 115.047 91.7242 136.753C91.3792 140.72 91.1204 144.199 90.6029 151.185C89.5392 165.445 89.0217 172.575 88.648 180.625C88.2455 189.624 88.188 195.978 88.1017 208.685C88.0155 219.668 87.958 227.603 88.2455 237.982C88.4755 246.262 88.9355 257.503 90.0567 270.9C92.3854 271.59 94.6854 272.28 97.0142 272.97C96.9854 271.677 96.8992 269.348 96.7267 266.444C96.0367 253.535 94.9154 248.303 94.6567 237.55C94.5704 234.244 94.6279 232.059 94.6567 228.925C94.9729 206.443 94.5992 196.179 94.8004 181.574C95.1454 157.74 96.7554 139.11 98.1354 123.24C99.4292 108.233 100.895 95.3816 102.16 85.3191C100.579 85.2328 99.0554 85.1466 97.5317 85.0603Z" fill="#111314"/>
<path d="M299.443 101.276C300.507 122.378 300.363 143.538 300.075 164.641C299.759 185.283 299.615 205.983 298.034 226.597C297.143 238.327 295.734 250.028 293.549 261.614C293.434 262.161 294.268 262.391 294.383 261.844C298.207 241.576 299.615 220.962 300.248 200.377C300.909 179.361 301.197 158.287 301.168 137.242C301.139 125.253 300.938 113.264 300.334 101.276C300.277 100.729 299.414 100.729 299.443 101.276Z" fill="#111314"/>
<path d="M300.506 101.276C316.463 93.3693 333.396 87.6768 350.876 84.3131C351.423 84.1981 351.193 83.3643 350.646 83.4793C333.109 86.8718 316.089 92.6218 300.075 100.528C299.586 100.787 300.018 101.534 300.506 101.276Z" fill="#111314"/>
<path d="M350.589 84.0542C355.333 107.945 356.77 132.354 356.741 156.677C356.684 180.999 355.246 205.264 354.068 229.558C353.378 243.559 352.688 257.532 351.998 271.533C351.969 272.079 352.831 272.079 352.86 271.533C354.096 246.75 355.39 221.968 356.511 197.157C357.604 172.834 358.294 148.454 356.655 124.16C355.735 110.619 354.096 97.1354 351.451 83.8529C351.308 83.2779 350.474 83.5079 350.589 84.0542Z" fill="#111314"/>
<path d="M293.692 261.786C294.986 263.281 297.286 263.569 299.097 264.115C301.569 264.863 304.071 265.61 306.543 266.358C311.546 267.853 316.52 269.434 321.58 270.699C331.47 273.114 341.618 273.603 351.652 271.878C352.198 271.791 351.968 270.958 351.422 271.044C341.532 272.74 331.527 272.251 321.809 269.865C317.181 268.744 312.638 267.306 308.096 265.926C305.796 265.236 303.496 264.546 301.196 263.856C300.046 263.511 298.896 263.166 297.746 262.821C296.538 262.448 295.187 262.189 294.325 261.183C293.922 260.78 293.318 261.384 293.692 261.786Z" fill="#111314"/>
<path d="M351.164 84.0829C352.228 84.3417 353.291 84.6004 354.384 84.8592C354.93 85.0029 355.16 84.1691 354.614 84.0254C353.55 83.7666 352.486 83.5079 351.394 83.2491C350.848 83.1341 350.618 83.9679 351.164 84.0829Z" fill="#111314"/>
<path d="M354.326 84.5718C357.201 96.1868 357.977 108.319 358.811 120.251C359.674 132.441 360.133 144.659 360.335 156.907C360.68 181.201 359.846 205.494 358.466 229.759C357.69 243.502 356.712 257.244 355.706 270.987C355.677 271.533 356.54 271.533 356.569 270.987C358.38 246.549 360.018 222.112 360.795 197.617C361.571 173.179 361.514 148.684 359.961 124.247C359.127 110.964 358.38 97.3368 355.188 84.3705C355.016 83.7955 354.182 84.0255 354.326 84.5718Z" fill="#111314"/>
<path d="M352.457 272.022C353.722 271.907 354.958 271.792 356.223 271.677C356.77 271.619 356.77 270.757 356.223 270.814C354.958 270.929 353.722 271.044 352.457 271.159C351.911 271.217 351.911 272.08 352.457 272.022Z" fill="#111314"/>
<path d="M160.551 112.172C158.625 132.095 157.475 152.077 157.101 172.087C156.727 192.183 157.13 212.308 158.337 232.375C158.998 243.645 159.947 254.887 161.097 266.099C161.155 266.645 162.017 266.645 161.96 266.099C159.89 246.204 158.596 226.223 158.078 206.213C157.561 186.117 157.82 165.992 158.883 145.924C159.487 134.654 160.321 123.413 161.385 112.172C161.471 111.625 160.608 111.625 160.551 112.172Z" fill="#111314"/>
<path d="M102.477 85.2326C121.136 95.6114 140.513 104.696 160.408 112.43C160.926 112.631 161.156 111.798 160.638 111.596C140.801 103.891 121.509 94.8351 102.908 84.4851C102.419 84.1976 101.988 84.9451 102.477 85.2326Z" fill="#111314"/>
<path d="M101.585 85.0319C98.3934 109.354 96.1796 133.821 94.9721 158.344C93.7646 182.868 93.5921 207.421 94.3971 231.944C94.8571 245.716 95.6334 259.487 96.7259 273.229C96.7834 273.776 97.6459 273.776 97.5884 273.229C95.6334 248.763 94.7134 224.211 94.7709 199.687C94.8284 175.134 95.9209 150.611 97.9909 126.144C99.1696 112.402 100.665 98.7169 102.447 85.0319C102.505 84.4856 101.642 84.4856 101.585 85.0319Z" fill="#111314"/>
<path d="M96.698 273.776C112.712 282.487 131.888 280.618 148.16 273.718C153.048 271.648 157.763 269.147 162.305 266.416C162.765 266.128 162.334 265.381 161.874 265.668C146.723 274.839 128.955 281.251 111.044 277.916C106.185 277.024 101.47 275.386 97.1292 273.028C96.6692 272.769 96.2092 273.517 96.698 273.776Z" fill="#111314"/>
<path d="M90.3437 271.389C92.3562 272.338 94.4261 273.143 96.5249 273.862C97.0424 274.034 97.2724 273.201 96.7549 273.028C94.7136 272.338 92.7299 271.562 90.7749 270.642C90.2574 270.412 89.8262 271.159 90.3437 271.389Z" fill="#111314"/>
<path d="M96.9563 85.2329C93.8513 109.325 91.2638 133.475 89.5675 157.712C87.9 181.833 87.095 206.012 87.6125 230.19C87.9 243.875 88.59 257.56 89.7688 271.188C89.8263 271.734 90.6888 271.734 90.6313 271.188C88.5613 247.009 87.9575 222.744 88.5325 198.479C89.0788 174.3 90.7463 150.15 93.1325 126.058C94.4838 112.43 96.065 98.8029 97.8188 85.2042C97.905 84.6867 97.0425 84.6867 96.9563 85.2329Z" fill="#111314"/>
<path d="M97.4457 85.8369C99.1132 85.4919 100.781 85.3769 102.506 85.4632C103.052 85.4919 103.052 84.6294 102.506 84.6007C100.723 84.5144 98.9695 84.6582 97.2157 85.0032C96.6695 85.1182 96.8995 85.9519 97.4457 85.8369Z" fill="#111314"/>
<path d="M310.454 103.23C311.661 136.58 311.604 169.959 310.224 203.309C309.85 212.653 309.361 221.968 308.758 231.311C308.729 231.858 309.591 231.858 309.62 231.311C311.719 198.019 312.524 164.64 312.035 131.261C311.891 121.918 311.661 112.574 311.316 103.23C311.288 102.684 310.425 102.684 310.454 103.23Z" fill="#111314"/>
<path d="M324.397 91.2705C325.547 114.472 326.122 137.73 326.093 160.96C326.093 184.19 325.518 207.449 324.368 230.65C323.736 243.789 322.902 256.899 321.896 270.009C321.867 270.555 322.729 270.555 322.758 270.009C324.541 246.837 325.748 223.635 326.409 200.405C327.042 177.175 327.128 153.917 326.639 130.687C326.352 117.548 325.892 104.409 325.259 91.2705C325.231 90.7242 324.368 90.7242 324.397 91.2705Z" fill="#111314"/>
<path d="M341.13 86.1529C342.74 110.274 343.718 134.453 343.976 158.66C344.235 182.954 343.833 207.219 342.74 231.484C342.136 245.083 341.303 258.682 340.239 272.252C340.21 272.798 341.073 272.798 341.101 272.252C342.941 248.13 344.149 223.952 344.638 199.773C345.126 175.508 344.954 151.214 344.091 126.92C343.603 113.322 342.913 99.7229 341.993 86.1242C341.964 85.5779 341.101 85.5779 341.13 86.1529Z" fill="#111314"/>
<path d="M307.493 242.093C306.832 249.625 305.624 257.1 303.871 264.46C303.756 265.006 304.561 265.236 304.704 264.69C306.487 257.244 307.694 249.711 308.356 242.093C308.413 241.546 307.551 241.546 307.493 242.093Z" fill="#111314"/>
<path d="M111.906 90.839C108.456 114.96 106.989 139.34 106.759 163.692C106.558 188.187 107.564 212.653 109.059 237.09C109.893 250.919 110.871 264.719 111.848 278.548C111.877 279.094 112.739 279.094 112.711 278.548C110.986 254.197 109.261 229.845 108.312 205.465C107.363 181.143 107.219 156.763 108.628 132.44C109.433 118.612 110.756 104.783 112.711 91.069C112.826 90.5515 111.992 90.2928 111.906 90.839Z" fill="#111314"/>
<path d="M128.437 98.8889C126.252 122.205 124.786 145.608 124.297 169.039C123.837 192.441 124.383 215.844 126.31 239.189C127.373 252.155 128.868 265.064 130.823 277.915C130.91 278.461 131.743 278.231 131.657 277.685C128.15 254.513 126.137 231.11 125.39 207.679C124.642 184.564 125.073 161.391 126.338 138.305C127.057 125.166 128.063 112.028 129.3 98.9176C129.357 98.3426 128.495 98.3426 128.437 98.8889Z" fill="#111314"/>
<path d="M144.998 105.76C142.181 127.524 140.542 149.431 140.111 171.368C139.679 193.304 140.427 215.269 142.353 237.119C143.446 249.309 144.883 261.441 146.694 273.545C146.781 274.091 147.614 273.861 147.528 273.315C144.279 251.638 142.209 229.816 141.318 207.938C140.427 186.116 140.743 164.238 142.209 142.416C143.043 130.169 144.251 117.921 145.832 105.731C145.947 105.214 145.084 105.214 144.998 105.76Z" fill="#111314"/>
<path opacity="0.12" d="M334.689 88.1075C337.881 101.131 340.468 116.398 341.331 133.504C343.487 177.031 333.252 212.595 324.339 235.423C318.043 245.514 311.776 255.605 305.479 265.696C311.603 268.341 320.688 271.418 332.016 272.338C339.836 272.97 346.621 272.395 351.911 271.533C351.968 270.268 352.917 251.034 352.974 249.769C356.108 185.34 356.309 180.941 356.424 176.514C356.942 158.488 356.856 132.613 353.779 100.326C352.716 94.835 351.652 89.3438 350.588 83.8813C345.327 85.2613 340.008 86.67 334.689 88.1075Z" fill="#2D3436"/>
<path opacity="0.13" d="M134.044 102.167C133.296 105.3 132.175 109.987 130.853 115.708C124.988 141.238 120.675 160.012 118.375 177.29C114.293 207.737 110.354 237.234 127.144 261.442C132.031 268.485 137.379 273.229 140.944 276.047C137.494 277.398 133.21 278.634 128.208 279.238C114.293 280.877 103.138 276.363 97.6751 273.66C95.6051 254.599 94.1676 234.187 93.7076 212.595C92.6726 164.813 96.5538 121.86 102.476 84.9166C112.97 90.6666 123.493 96.4166 134.044 102.167Z" fill="#2D3436"/>
<path d="M103.885 71.2313C103.512 71.5188 103.799 72.64 104.317 74.5663C104.518 75.3138 104.719 75.8888 104.834 76.2625C104.604 77.815 104.403 79.3675 104.173 80.92C103.713 80.9775 102.534 81.2363 101.442 82.185C100.435 83.0763 100.033 84.1113 99.8892 84.5713C100.809 84.6575 101.93 84.8588 103.138 85.2325C104.892 85.7788 106.272 86.5263 107.278 87.1588C107.278 87.5038 107.335 88.165 107.795 88.6538C108.198 89.0563 108.687 89.1138 108.974 89.1713C110.009 89.3438 111.245 89.5738 112.827 89.9188C113.517 90.3213 114.667 90.9825 116.075 91.7588C120.848 94.3463 122.573 94.7775 127.345 97.3075C130.422 98.9463 130.163 99.0038 132.319 100.039C135.625 101.649 138.472 102.598 140.398 103.144C141.203 102.253 142.497 100.528 143.215 98.0263C143.79 96.0425 143.762 94.3175 143.647 93.1963C144.135 93.455 144.912 93.7425 145.803 93.6275C148.103 93.3688 149.569 90.7525 150.029 88.8838C150.432 87.245 150.058 86.21 149.742 84.2838C149.023 79.9713 148.39 76.1188 150.173 73.675C151.668 71.6338 154.744 70.685 157.217 67.9538C157.447 67.695 157.878 67.2063 157.734 66.9763C157.475 66.545 155.463 67.2925 154.485 67.7238C153.853 68.0113 149.109 70.1963 147.672 75.1413C147.442 75.9175 147.413 78.16 147.384 82.6163C147.355 85.865 147.413 87.705 146.119 88.7688C145.458 89.315 144.48 89.6313 143.589 89.43C142.267 89.1425 141.634 87.8488 141.059 86.9863C139.564 84.715 137.437 83.7663 134.82 82.4725C132.779 81.4663 131.025 81.0925 127.489 80.3163C124.154 79.5975 123.148 79.6838 121.71 78.62C120.1 77.4125 119.209 75.7163 118.749 74.7675C118.289 73.8763 117.57 72.4675 117.254 70.455C117.082 69.2763 117.11 68.4425 116.823 68.385C116.305 68.27 116.047 70.6563 114.293 71.49C113.229 72.0075 112.539 71.5188 110.67 71.5763C109.463 71.605 108.083 71.8638 106.53 72.5538C106.013 72.18 104.403 70.8575 103.885 71.2313Z" fill="#111314"/>
<path d="M104.748 80.6898C104.145 75.9461 108.457 71.6336 113.23 72.1224C117.743 72.5824 120.733 78.0736 120.59 82.1848C120.561 82.7311 121.423 82.7311 121.452 82.1848C121.596 77.6423 118.203 71.6624 113.23 71.2599C107.997 70.8286 103.225 75.4573 103.886 80.6898C103.972 81.2073 104.835 81.2361 104.748 80.6898Z" fill="#111314"/>
<path d="M104.661 83.6801C106.415 87.1013 110.181 89.5163 114.12 88.9988C117.714 88.5101 120.761 85.6063 121.307 82.0126C121.394 81.4663 120.56 81.2363 120.474 81.7826C119.985 85.0601 117.282 87.7051 114.005 88.1363C110.411 88.6251 107.019 86.3826 105.409 83.2488C105.15 82.7601 104.402 83.1913 104.661 83.6801Z" fill="#111314"/>
<path d="M107.767 87.849C107.681 86.7565 110.786 86.2965 111.562 86.124C112.971 85.8078 114.408 85.6353 115.846 85.6353C118.519 85.6353 121.078 86.3253 123.349 87.734C123.809 88.0215 124.269 87.274 123.781 86.9865C120.848 85.1753 117.427 84.5428 114.034 84.859C112.252 85.0315 110.498 85.4053 108.802 85.9803C107.882 86.2965 106.789 86.699 106.876 87.849C106.933 88.3953 107.824 88.3953 107.767 87.849Z" fill="#111314"/>
<path d="M120.129 77.9014C121.94 80.0864 124.873 80.6039 127.489 81.1789C130.968 81.9839 134.562 82.7027 137.609 84.6289C143.905 88.5964 145.084 97.2502 140.11 102.799C139.737 103.201 140.34 103.834 140.714 103.403C145.142 98.4864 145.257 90.9539 140.685 86.0664C138.27 83.4789 134.82 82.1277 131.457 81.2364C128.035 80.3452 123.119 80.2014 120.704 77.2689C120.388 76.8664 119.784 77.4702 120.129 77.9014Z" fill="#111314"/>
<path d="M140.253 92.9377C138.816 91.0402 136.286 90.3789 134.072 91.2989C131.341 92.4202 131.197 95.7839 131.513 98.3427C131.571 98.8889 132.433 98.8889 132.376 98.3427C132.117 96.3302 132.088 93.2252 134.158 92.2189C135.941 91.3277 138.27 91.7877 139.477 93.3977C139.822 93.8289 140.57 93.3977 140.253 92.9377Z" fill="#111314"/>
<path d="M132.261 97.9402C130.68 96.7326 129.041 95.6976 127 96.2439C126.77 96.3014 126.655 96.5601 126.712 96.7614C127.23 98.7739 130.392 99.6077 132.06 100.326C134.619 101.448 137.235 102.396 139.88 103.23C140.397 103.403 140.627 102.569 140.11 102.396C137.982 101.735 135.912 101.016 133.842 100.154C132.721 99.6939 131.629 99.2052 130.536 98.6877C129.559 98.2277 127.805 97.6814 127.517 96.5314C127.431 96.7039 127.316 96.8764 127.23 97.0489C129.012 96.5601 130.479 97.6239 131.801 98.6589C132.261 99.0327 132.692 98.2852 132.261 97.9402Z" fill="#111314"/>
<path d="M106.99 87.7625C108.112 89.6025 110.383 89.9187 112.367 90.2062C115.299 90.6375 118.232 90.6375 121.164 90.3212C121.711 90.2637 121.711 89.4012 121.164 89.4587C118.807 89.7175 116.449 89.775 114.092 89.545C112.108 89.3437 108.917 89.2287 107.709 87.3312C107.45 86.8425 106.703 87.2737 106.99 87.7625Z" fill="#111314"/>
<path d="M100.291 84.8302C100.665 82.8177 102.419 81.7827 104.374 81.6965C104.23 81.5815 104.086 81.4952 103.971 81.3802C104.115 82.0702 104.316 82.7315 104.604 83.364C104.805 83.8815 105.639 83.6515 105.438 83.134C105.179 82.4727 104.978 81.8402 104.805 81.1502C104.776 80.9777 104.575 80.834 104.403 80.834C102.103 80.949 99.9177 82.214 99.4865 84.6003C99.3715 85.1465 100.205 85.3765 100.291 84.8302Z" fill="#111314"/>
<path d="M105.294 75.9175C104.863 74.6813 104.547 73.3875 104.432 72.065C104.432 71.95 104.403 71.835 104.403 71.72C104.374 71.4613 104.403 71.49 104.518 71.8063C104.777 71.9788 105.035 72.18 105.294 72.3813C105.725 72.755 106.128 73.1575 106.473 73.5888C106.847 74.02 107.45 73.3875 107.077 72.985C106.588 72.41 104.547 70.0525 103.684 70.9725C103.253 71.4325 103.569 72.4963 103.655 73.0138C103.799 74.0775 104.087 75.1413 104.432 76.1475C104.662 76.665 105.495 76.4638 105.294 75.9175Z" fill="#111314"/>
<path d="M115.011 71.8927C115.27 71.4327 115.529 70.9727 115.817 70.5127C115.932 70.3115 116.047 70.139 116.133 69.9377C116.305 69.6502 116.305 69.3915 116.65 69.4777C117.053 69.564 116.909 70.5127 116.909 70.8577C116.909 71.404 116.938 71.9502 116.938 72.4965C116.938 73.0428 117.8 73.0428 117.8 72.4965C117.8 71.6052 117.829 70.714 117.772 69.8227C117.743 69.2477 117.542 68.6152 116.909 68.414C116.334 68.2415 115.932 68.6152 115.644 69.0465C115.155 69.8227 114.724 70.6565 114.264 71.4328C113.977 71.9503 114.724 72.3815 115.011 71.8927Z" fill="#111314"/>
<path d="M142.554 90.6948C142.726 92.8798 145.17 93.5985 146.866 92.5348C149.367 90.9823 149.914 87.4748 149.597 84.8298C149.166 81.2073 148.304 77.8435 149.54 74.2498C150.719 70.8285 153.651 68.0398 157.36 67.8098C157.906 67.781 157.906 66.9185 157.36 66.9473C152.3 67.2635 148.85 71.576 148.131 76.3485C147.7 79.1948 148.332 81.8398 148.706 84.6285C148.936 86.4685 148.821 88.2223 147.987 89.9185C147.614 90.6373 147.096 91.356 146.406 91.816C145.342 92.4773 143.502 92.276 143.387 90.7235C143.387 90.1485 142.525 90.1198 142.554 90.6948Z" fill="#111314"/>
<path d="M143.014 92.2478C143.905 94.634 147.01 93.5703 148.361 92.1903C150.575 89.9478 150.086 86.2103 149.914 83.364C149.885 82.8178 149.022 82.8178 149.051 83.364C149.166 85.1753 149.339 87.1303 149.022 88.9415C148.879 89.804 148.562 90.609 147.987 91.299C147.355 92.0753 144.595 94.0303 143.847 92.0178C143.646 91.5003 142.812 91.7303 143.014 92.2478Z" fill="#111314"/>
<path d="M157.389 66.9188C154.111 68.1838 150.805 69.9663 149.483 73.4163C147.959 77.3838 149.051 81.6963 148.965 85.8075C148.965 86.3538 149.828 86.3538 149.828 85.8075C149.914 82.2138 149.051 78.5338 149.914 74.9688C150.863 71.0588 154.111 69.1038 157.619 67.7525C158.136 67.5513 157.906 66.7175 157.389 66.9188Z" fill="#111314"/>
<path d="M156.727 67.4074C153.709 68.7874 150.949 71.2024 149.54 74.2787C148.792 75.8887 148.907 77.6712 148.907 79.4249C148.907 81.6674 148.994 83.9387 149.166 86.1812C149.195 86.7274 150.057 86.7274 150.029 86.1812C149.914 84.3699 149.827 82.5874 149.799 80.7762C149.77 78.8787 149.511 76.6362 150.23 74.8537C151.466 71.8349 154.255 69.5062 157.159 68.1549C157.676 67.9249 157.245 67.1774 156.727 67.4074Z" fill="#111314"/>
<path d="M106.444 77.8153C107.249 79.2241 109.29 78.7353 109.492 77.1828C109.52 76.8953 109.089 76.9241 109.06 77.1828C108.917 78.3616 107.422 78.5916 106.818 77.6141C106.674 77.3553 106.3 77.5853 106.444 77.8153Z" fill="white"/>
<path d="M112.538 76.6939C113.43 78.2177 115.701 77.6139 115.73 75.8602C115.73 75.5727 115.298 75.5727 115.298 75.8602C115.27 77.2114 113.602 77.6427 112.912 76.4927C112.768 76.2339 112.395 76.4352 112.538 76.6939Z" fill="white"/>
<path d="M110.814 78.5913C111.015 79.425 110.842 80.2588 110.325 80.9488C110.152 81.1788 110.526 81.38 110.698 81.1788C111.274 80.4025 111.446 79.425 111.245 78.4763C111.159 78.2175 110.727 78.3325 110.814 78.5913Z" fill="white"/>
<path d="M110.986 78.5624C110.9 79.6549 111.504 80.6899 112.51 81.1499C112.769 81.2649 112.97 80.8911 112.74 80.7761C111.877 80.3736 111.331 79.5111 111.417 78.5624C111.417 78.2749 110.986 78.2749 110.986 78.5624Z" fill="white"/>
<path d="M103.971 81.1215C106.501 80.9203 108.111 82.9903 109.808 84.514C110.009 84.6865 110.325 84.399 110.124 84.1978C108.341 82.5878 106.616 80.489 103.971 80.6615C103.713 80.6903 103.713 81.1215 103.971 81.1215Z" fill="white"/>
<path d="M108.687 86.1815C111.936 84.1115 115.788 83.4215 119.555 84.2552C119.813 84.3127 119.928 83.9102 119.67 83.8527C115.788 83.019 111.821 83.709 108.486 85.8365C108.227 85.9515 108.457 86.3252 108.687 86.1815Z" fill="white"/>
<path d="M116.851 90.1198C119.525 90.2923 122.055 89.4586 124.096 87.7048C124.297 87.5323 124.01 87.2161 123.78 87.3886C121.825 89.0561 119.41 89.8611 116.851 89.6886C116.592 89.6886 116.592 90.1198 116.851 90.1198Z" fill="white"/>
<path d="M116.075 69.7072C115.443 70.7709 115.299 72.0072 115.673 73.1859C115.759 73.4447 116.161 73.3297 116.075 73.0709C115.73 72.0072 115.845 70.8859 116.42 69.9372C116.593 69.6784 116.219 69.4484 116.075 69.7072Z" fill="white"/>
<path d="M104.69 72.3815C105.38 72.8128 105.811 73.474 105.984 74.2503C106.041 74.509 106.444 74.394 106.386 74.1353C106.185 73.244 105.667 72.4965 104.891 72.0078C104.661 71.864 104.46 72.2378 104.69 72.3815Z" fill="white"/>
<path d="M119.899 76.9811C120.445 77.6424 121.078 78.2174 121.797 78.6486C122.027 78.7924 122.257 78.4186 122.027 78.2749C121.337 77.8436 120.704 77.2974 120.215 76.6649C120.014 76.4636 119.727 76.7799 119.899 76.9811Z" fill="white"/>
<path d="M137.638 91.0972C137.034 89.5734 134.13 90.6084 133.182 91.2122C131.485 92.3335 130.738 94.4322 131.37 96.3585C131.457 96.6172 131.859 96.5022 131.773 96.2435C131.284 94.7197 131.687 93.081 132.894 91.9597C133.412 91.471 134.102 91.1259 134.792 90.9534C135.28 90.8097 136.948 90.4934 137.207 91.1834C137.322 91.4709 137.724 91.356 137.638 91.0972Z" fill="white"/>
<path d="M131.716 96.3874C129.473 95.4387 127.087 95.3524 124.758 96.0712C124.5 96.1574 124.615 96.5599 124.873 96.4737C127.145 95.7549 129.416 95.8699 131.601 96.7899C131.86 96.9049 131.975 96.4737 131.716 96.3874Z" fill="white"/>
<path d="M210.692 215.959C209.513 218.776 209.513 220.875 209.34 226.28C209.139 232.95 208.564 239.591 208.507 246.232C208.449 251.839 208.363 260.32 208.133 271.36C217.333 271.877 227.51 271.992 238.55 271.446C249.073 270.929 258.79 269.865 267.559 268.542C263.419 254.541 260.688 244.335 258.733 236.429C257.698 232.202 256.174 225.877 251.977 218.489C249.677 214.435 247.29 211.387 245.537 209.346C245.077 208.944 234.928 200.405 223.198 204.43C222.623 204.66 214.084 207.765 210.692 215.959Z" fill="#B2BEC3"/>
<path d="M227.626 232.72C229.552 236.141 231.478 239.562 233.376 242.984C233.634 243.472 234.382 243.041 234.123 242.552C232.197 239.131 230.271 235.71 228.373 232.289C228.114 231.8 227.367 232.231 227.626 232.72Z" fill="#636E72"/>
<path d="M227.396 232.548C231.823 238.068 234.382 244.364 235.762 251.264C237.056 257.79 237.889 264.403 238.378 271.044C238.407 271.59 239.269 271.59 239.241 271.044C238.723 264.23 237.861 257.417 236.538 250.718C235.158 243.789 232.456 237.464 228.028 231.944C227.683 231.484 227.051 232.117 227.396 232.548Z" fill="#636E72"/>
<path opacity="0.19" d="M234.324 203.768C235.331 205.781 236.768 208.742 238.378 212.307C243.064 222.715 247.923 233.697 250.511 247.21C251.574 252.672 252.581 260.579 252.149 270.44C254.564 270.325 257.123 270.124 259.797 269.836C262.471 269.549 265.029 269.204 267.444 268.801C266.697 266.271 265.489 262.246 264.138 257.272C260.372 243.357 259.854 239.016 256.634 229.845C254.248 223.031 252.034 218.402 248.843 213.975C245.968 209.978 243.266 207.477 239.844 205.723C237.717 204.631 235.733 204.085 234.324 203.768Z" fill="#2D3436"/>
<path opacity="0.11" d="M227.453 232.863C228.575 237.061 229.552 242.063 230.012 247.698C230.817 257.445 229.782 265.753 228.517 271.963C231.823 271.762 235.101 271.561 238.407 271.36C238.062 264.833 237.315 259.342 236.596 255.173C234.785 244.565 232.887 240.626 231.363 238.096C229.926 235.767 228.488 234.013 227.453 232.863Z" fill="#2D3436"/>
<path d="M190.625 166.969C189.676 167.601 189.101 168.809 187.98 171.195C187.06 173.15 186.628 174.674 185.938 176.945C184.041 183.385 184.242 182.292 183.581 184.736C182.718 187.985 181.166 193.677 180.303 201.181C179.47 208.455 179.642 214.061 179.671 215.412C179.987 223.951 181.482 230.305 182.488 234.387C184.271 241.719 186.657 247.814 191.401 259.975C192.436 262.591 193.298 264.748 193.902 266.243C193.471 266.3 192.781 266.386 191.947 266.501C187.606 267.019 187.002 266.904 185.248 267.278C183.006 267.766 180.993 268.255 180.217 269.951C179.872 270.728 179.728 271.82 180.16 272.194C180.706 272.654 181.77 271.619 183.61 271.015C185.162 270.526 186.542 270.555 187.491 270.699C186.743 272.165 186.312 273.488 186.053 274.436C185.421 276.621 184.932 278.404 185.737 279.669C186.14 280.301 186.916 280.876 187.548 280.704C187.893 280.618 188.21 280.301 189.072 278.03C189.906 275.759 189.963 275.04 190.653 274.149C191.257 273.401 191.947 272.999 192.407 272.769C192.177 273.488 191.918 274.551 191.803 275.845C191.746 276.621 191.66 277.34 191.803 278.26C191.918 279.094 192.177 280.876 193.5 281.854C193.73 282.026 194.678 282.745 195.253 282.371C195.742 282.084 195.598 281.279 195.8 278.691C195.972 276.506 196.145 275.903 196.288 275.558C196.662 274.551 197.237 273.833 197.668 273.401C197.525 275.471 197.553 277.196 197.611 278.461C197.726 280.503 197.927 281.423 198.588 281.998C198.962 282.314 199.595 282.63 200.112 282.4C200.63 282.17 200.802 281.451 200.946 280.56C201.578 277.196 201.205 276.219 201.923 274.523C202.211 273.861 202.527 273.056 203.303 272.481C204.942 271.274 207.271 271.993 207.587 272.079C208.967 272.51 209.485 273.258 210.175 272.941C210.75 272.683 211.066 271.849 211.095 271.159C211.123 269.463 209.255 268.169 207.645 267.105C206.84 266.559 205.632 265.84 204.022 265.265C202.613 262.476 200.831 258.423 199.365 253.276C198.387 249.826 197.927 247.181 197.496 244.68C195.972 235.911 196.518 232.547 194.822 223.836C194.42 221.737 194.017 220.07 193.787 219.121C193.902 217.684 194.103 215.441 194.391 212.71C195.34 203.797 195.972 198.22 197.898 191.665C199.422 186.519 200.975 182.292 200.975 182.292C202.93 177.031 203.562 176.312 203.332 174.616C202.527 169.269 194.161 164.611 190.625 166.969Z" fill="white"/>
<path d="M188.41 169.7C183.293 181.516 180.073 194.137 179.383 207.017C178.664 220.156 180.935 233.007 185.19 245.427C187.605 252.528 190.538 259.428 193.528 266.328C193.758 266.846 194.477 266.386 194.275 265.897C189.1 253.937 184.04 241.805 181.625 228.982C179.239 216.332 179.728 203.251 182.488 190.687C184.04 183.643 186.283 176.772 189.158 170.16C189.359 169.642 188.64 169.182 188.41 169.7Z" fill="#111314"/>
<path d="M199.134 186.116C195.511 197.07 193.614 208.541 193.412 220.07C193.412 220.616 194.275 220.616 194.275 220.07C194.476 208.599 196.374 197.243 199.967 186.346C200.14 185.829 199.306 185.599 199.134 186.116Z" fill="#111314"/>
<path d="M190.394 214.838C192.952 218.403 193.987 222.658 194.591 226.913C195.224 231.254 195.511 235.653 196.144 239.994C197.409 248.82 199.479 257.618 203.647 265.524C203.906 266.013 204.654 265.582 204.395 265.093C200.054 256.87 198.012 247.699 196.805 238.557C195.741 230.535 196.057 221.249 191.141 214.407C190.825 213.975 190.077 214.407 190.394 214.838Z" fill="#111314"/>
<path d="M193.413 265.926C190.739 266.07 188.065 266.329 185.449 266.817C183.58 267.191 181.596 267.795 180.303 269.29C179.555 270.181 178.606 272.309 180.245 272.912C180.964 273.171 181.596 272.682 182.2 272.337C183.695 271.475 185.248 270.584 187.03 271.072C187.576 271.216 187.806 270.382 187.26 270.239C185.794 269.836 184.471 270.181 183.149 270.842C182.746 271.044 182.373 271.245 181.999 271.475C181.769 271.59 181.568 271.734 181.338 271.877C181.079 271.417 180.791 270.957 180.533 270.497C180.59 269.779 182.028 268.945 182.545 268.657C183.954 267.91 185.593 267.651 187.145 267.421C189.244 267.105 191.342 266.904 193.441 266.789C193.987 266.76 193.988 265.897 193.413 265.926Z" fill="#111314"/>
<path d="M191.056 268.485C188.785 268.859 186.916 270.411 186.053 272.51C185.133 274.695 184.357 277.944 185.421 280.186C186.226 281.882 188.21 282.486 188.957 280.416C189.417 279.122 189.331 277.714 189.791 276.42C190.366 274.81 191.343 273.43 192.781 272.481C193.241 272.165 192.81 271.417 192.35 271.734C190.998 272.625 189.992 273.832 189.331 275.299C188.986 276.046 188.727 276.822 188.555 277.627C188.411 278.289 188.325 281.624 186.743 280.646C185.852 280.1 185.766 278.346 185.795 277.455C185.852 276.132 186.197 274.609 186.628 273.344C187.347 271.216 189.043 269.692 191.257 269.319C191.832 269.232 191.602 268.399 191.056 268.485Z" fill="#111314"/>
<path d="M193.758 270.612C191.976 271.762 191.343 274.263 191.171 276.276C190.998 278.432 191.602 280.761 193.212 282.285C194.161 283.176 195.627 283.636 195.886 281.968C196.317 279.18 195.196 275.241 198.243 273.573C198.732 273.315 198.301 272.567 197.812 272.826C196.72 273.43 196.03 274.407 195.598 275.586C194.995 277.311 195.34 279.065 195.081 280.847C194.966 281.652 194.736 282.515 193.845 281.681C193.528 281.393 193.241 281.02 193.011 280.646C192.465 279.783 192.148 278.806 192.062 277.8C191.861 275.787 192.378 272.567 194.218 271.36C194.65 271.043 194.218 270.296 193.758 270.612Z" fill="#111314"/>
<path d="M197.841 272.912C197.294 274.982 196.777 277.139 197.122 279.295C197.266 280.33 197.869 282.86 199.192 283.119C200.687 283.406 201.291 280.761 201.434 279.784C201.751 277.656 201.348 275.097 203.016 273.459C203.418 273.056 202.814 272.452 202.412 272.855C200.399 274.839 201.089 277.714 200.485 280.244C200.284 281.164 199.709 282.544 198.761 281.48C198.243 280.934 198.099 279.87 197.984 279.151C197.697 277.139 198.186 275.126 198.703 273.171C198.818 272.625 197.984 272.395 197.841 272.912Z" fill="#111314"/>
<path d="M204.051 266.012C205.747 266.702 207.5 267.45 208.823 268.772C209.427 269.376 210.174 270.296 210.347 271.158C210.778 273.545 208.996 272.021 208.334 271.733C206.523 270.928 202.929 271.503 201.894 273.343C201.636 273.832 202.383 274.263 202.642 273.775C203.188 272.768 204.683 272.51 205.718 272.366C206.35 272.28 207.069 272.222 207.673 272.395C208.363 272.596 208.794 273.2 209.455 273.401C210.404 273.688 211.123 273.027 211.267 272.107C211.525 270.612 210.232 268.945 209.225 267.967C207.817 266.616 206.005 265.868 204.223 265.15C203.763 264.977 203.562 265.811 204.051 266.012Z" fill="#111314"/>
<path opacity="0.13" d="M198.243 176.83C194.937 177.031 192.953 185.484 191.861 190.17C190.625 195.431 189.503 202.676 189.733 213.227C189.935 222.657 191.142 229.845 191.545 232.346C193.356 243.098 196.202 252.126 198.991 259.198C199.911 261.786 200.802 264.373 201.722 266.932C201.205 269.06 200.687 271.245 200.198 273.516C199.566 276.506 198.991 279.438 198.531 282.256C199.077 282.313 199.825 282.285 200.342 281.767C201.003 281.106 200.917 280.042 200.946 279.122C200.975 278.26 201.061 274.091 202.93 272.538C204.08 271.59 205.92 271.59 207.185 272.05C208.478 272.538 209.053 273.487 209.916 273.2C210.577 272.998 211.037 272.193 211.123 271.561C211.411 269.462 207.386 267.306 206.725 266.961C205.431 266.271 204.827 266.185 203.993 265.322C202.958 264.23 202.613 262.936 202.47 262.361C200.083 253.276 198.905 253.851 197.295 243.415C196.087 235.537 196.863 235.997 195.627 229.73C194.765 225.302 194.046 223.491 193.816 219.667C193.557 215.47 194.046 212.192 194.563 209.288C196.72 197.415 200.86 183.04 201.866 179.618C200.946 178.181 199.681 176.743 198.243 176.83Z" fill="#2D3436"/>
<path d="M256.92 58.6389C256.029 58.6101 255.339 60.2201 255.167 60.6514C254.908 61.2839 254.505 62.5201 254.793 64.2739C254.793 64.2739 254.965 65.4814 255.54 72.7839C255.684 74.4226 255.713 76.8089 255.282 79.7989C254.132 82.9614 253.039 85.4339 252.292 87.0439C249.762 92.4489 248.065 94.6051 244.529 101.448C243.207 104.006 243.092 104.409 241.539 107.571C237.658 115.42 234.812 120.336 231.908 125.598C229.349 130.198 225.755 136.954 221.529 145.636C221.328 146.384 220.322 150.38 222.65 153.888C225.123 157.596 230.298 159.264 235.3 157.654C236.077 156.561 237.169 154.865 238.175 152.651C239.153 150.495 239.613 148.828 239.929 147.764C240.245 146.7 241.51 143.106 244.069 135.861C244.874 133.619 245.852 130.945 247.835 125.713C250.854 117.691 252.349 113.695 253.355 111.194C255.627 105.501 257.352 101.563 260.744 93.9151C262.527 89.8901 264.712 85.0314 267.242 79.5114C268.708 78.6776 270.72 77.3839 272.877 75.5151C275.982 72.8414 277.534 70.5701 280.524 66.2576C282.45 63.4401 283.917 60.9676 283.514 58.4951C283.457 58.1501 283.313 57.1439 282.767 57.0001C282.077 56.7989 281.214 58.1789 280.265 59.3864C279.288 60.6226 277.822 62.2326 275.637 63.9001C276.384 61.8301 277.132 60.2201 277.649 59.1564C278.828 56.7414 279.805 55.1889 280.409 52.5151C281.07 49.6689 280.467 49.1514 280.294 49.0076C279.518 48.4326 278.195 49.5251 277.419 48.8926C276.729 48.2889 277.333 46.9664 276.787 46.6501C276.24 46.3339 275.033 47.2826 274.17 48.2889C272.675 50.0139 272.33 51.6814 271.784 53.2914C271.267 54.8726 270.318 57.0289 268.535 59.4151C268.104 59.4726 267.529 59.5014 267.27 59.1564C266.983 58.7539 267.385 58.0926 267.759 57.0289C267.845 56.7701 267.788 56.9139 268.392 54.2689C268.622 53.2626 269.053 51.3939 269.398 49.8989C269.887 47.7426 270.117 46.8514 269.657 45.9026C269.57 45.7014 269.197 44.9251 268.65 44.8964C268.018 44.8676 267.529 45.8739 267.155 46.6501C265.632 49.7839 264.855 51.3651 264.654 51.9114C263.648 54.6426 262.297 58.8114 262.095 60.2489C262.067 60.4214 262.009 61.0251 261.722 61.8014C261.578 62.1751 261.492 62.3189 261.405 62.5489C260.687 64.1589 261.29 65.2226 260.543 65.7976C260.457 65.8551 260.025 66.1714 259.68 66.0564C259.307 65.9414 259.134 65.4526 258.933 63.8139C258.645 61.5714 258.818 60.9101 258.3 59.9326C257.955 59.5014 257.524 58.6676 256.92 58.6389Z" fill="white"/>
<path d="M255.54 71.9495C255.742 69.8507 255.425 67.8095 255.31 65.7107C255.253 64.7045 255.253 63.6695 255.397 62.6632C255.483 62.0882 255.598 61.5132 255.77 60.967C256.058 60.1332 256.087 59.4432 257.007 59.4145C257.869 59.3857 257.812 59.9032 257.955 60.622C258.099 61.2545 258.128 61.9157 258.157 62.5482C258.214 63.4395 258.243 64.3595 258.444 65.222C258.645 66.1132 259.192 66.8607 260.198 66.5445C260.715 66.372 260.514 65.5382 259.968 65.7107C258.962 65.9982 259.048 62.6057 258.99 62.0307C258.904 61.1107 258.818 60.162 258.473 59.2995C257.984 58.092 256.863 57.4882 255.914 58.6095C254.678 60.047 254.419 62.6345 254.419 64.417C254.419 66.947 254.908 69.4195 254.678 71.9495C254.649 72.4957 255.512 72.4957 255.54 71.9495Z" fill="#111314"/>
<path d="M260.543 66.1998C261.98 63.411 262.411 60.2485 263.245 57.2585C264.136 54.0385 265.258 50.876 266.925 48.001C267.299 47.3685 267.673 46.4773 268.219 45.9885C269.283 45.011 269.283 46.8798 269.196 47.6848C269.024 49.4673 268.564 51.2785 268.161 53.0323C267.788 54.6423 267.27 56.1948 266.896 57.8048C266.695 58.696 266.695 59.4723 267.328 60.1623C267.701 60.5648 268.305 59.961 267.931 59.5585C267.213 58.7823 267.96 57.2298 268.19 56.396C268.449 55.4473 268.708 54.4985 268.909 53.5498C269.311 51.796 269.714 50.0135 269.973 48.2023C270.116 47.2535 270.318 45.586 269.484 44.8673C268.765 44.2635 268.046 44.8385 267.558 45.4135C265.459 48.0298 264.165 51.4798 263.13 54.6423C261.951 58.2935 261.578 62.3761 259.795 65.7973C259.536 66.2573 260.284 66.6886 260.543 66.1998Z" fill="#111314"/>
<path d="M267.529 60.2483C268.391 60.3345 268.708 59.702 269.11 59.012C269.743 57.9195 270.318 56.7695 270.864 55.6483C271.928 53.4633 272.675 51.077 273.969 49.0358C274.256 48.5758 274.601 48.0008 275.061 47.6558C275.435 47.2245 275.924 47.0808 276.556 47.282C276.643 47.6845 276.7 48.087 276.7 48.4895C276.729 49.8983 276.269 51.307 275.78 52.6295C274.803 55.2458 273.71 57.8333 272.646 60.4495C272.445 60.967 273.279 61.197 273.48 60.6795C274.084 59.1845 280.294 46.0745 276.24 45.9883C275.435 45.9595 274.515 46.9658 274.055 47.512C273.25 48.4608 272.675 49.5533 272.158 50.6745C271.554 52.0258 271.008 53.377 270.375 54.6995C270.001 55.5045 269.57 56.3383 269.168 57.1145C268.909 57.632 268.276 59.4145 267.558 59.357C266.983 59.3283 266.983 60.1908 267.529 60.2483Z" fill="#111314"/>
<path d="M277.706 49.6688C278.023 48.0013 279.834 49.1513 280.064 50.2151C280.265 51.1063 279.92 51.9976 279.633 52.8313C279.201 54.0963 278.713 55.3326 278.195 56.5401C277.189 58.8976 276.01 61.1401 274.688 63.3538C274.4 63.8426 275.148 64.2738 275.435 63.7851C276.671 61.7438 277.764 59.6163 278.741 57.4601C279.575 55.5913 280.581 53.5213 280.898 51.4801C281.099 50.1863 280.725 48.5188 279.288 48.0588C278.224 47.7138 277.074 48.3751 276.873 49.4676C276.786 49.9851 277.62 50.2151 277.706 49.6688Z" fill="#111314"/>
<path d="M276.04 64.1298C277.132 62.8936 278.196 61.6573 279.289 60.4211C279.864 59.7598 280.381 59.0411 281.014 58.4661C281.215 58.2936 281.416 58.1498 281.589 57.9773C282.077 58.1498 282.566 58.3223 283.084 58.4948C283.227 58.7536 282.882 59.5011 282.796 59.7311C281.905 62.4623 280.611 65.0498 279.087 67.4648C276.011 72.3235 271.785 76.406 266.84 79.3673C266.351 79.6548 266.811 80.4023 267.271 80.1148C273.424 76.4348 278.484 71.0298 281.675 64.6186C282.451 63.0661 283.199 61.4273 283.687 59.7598C283.975 58.7823 284.147 57.4598 283.026 56.9423C281.934 56.4248 280.784 57.4311 280.094 58.1498C278.455 59.8461 276.96 61.7436 275.407 63.5261C275.062 63.9286 275.666 64.5323 276.04 64.1298Z" fill="#111314"/>
<path d="M254.793 71.0588C254.994 73.7038 255.196 76.4063 254.764 79.0513C254.333 81.6676 253.241 84.0825 252.033 86.44C249.589 91.2125 247.031 95.9275 244.529 100.671C239.527 110.159 234.524 119.618 229.522 129.105C226.647 134.539 223.772 140.001 220.897 145.435C220.638 145.924 221.386 146.355 221.644 145.866C231.966 126.288 242.488 106.795 252.637 87.1013C253.844 84.7726 254.966 82.3863 255.454 79.8275C256.029 76.9238 255.828 73.9913 255.598 71.0588C255.627 70.5125 254.764 70.5125 254.793 71.0588Z" fill="#111314"/>
<path d="M266.782 79.1657C257.582 98.6007 249.561 118.496 242.488 138.793C240.418 144.687 238.348 150.581 235.847 156.302C235.617 156.82 236.365 157.251 236.595 156.733C240.878 146.987 244.012 136.781 247.692 126.833C251.458 116.598 255.541 106.45 259.882 96.4445C262.355 90.7807 264.885 85.1745 267.53 79.597C267.76 79.1082 267.012 78.677 266.782 79.1657Z" fill="#111314"/>
<path opacity="0.1" d="M279.777 49.3237C278.599 49.1512 277.017 53.9812 276.097 56.3961C273.309 63.8136 270.951 64.6762 264.971 74.7387C262.757 78.4474 259.71 84.0249 256.634 91.2986C247.434 110.676 238.262 130.082 229.062 149.46C231.305 152.191 233.519 154.951 235.761 157.682C236.882 154.491 238.521 149.805 240.562 144.141C244.271 133.935 249.072 120.796 255.857 104.811C258.56 98.4861 262.297 89.9474 267.099 79.9137C268.421 79.0799 270.261 77.7862 272.274 76.0037C274.976 73.6462 278.541 70.4549 280.985 65.2512C281.761 63.6412 282.739 61.1687 283.256 57.9199C282.882 57.7474 282.336 57.5462 281.732 57.6612C280.697 57.8624 280.151 58.8686 279.72 59.5586C278.052 62.1174 275.609 63.8137 275.292 63.6124C275.12 63.4687 275.609 62.6349 276.931 59.9324C279.634 54.3837 278.512 55.8499 279.576 53.9812C280.18 52.9174 280.784 51.9974 280.582 50.8187C280.582 50.3012 280.266 49.4099 279.777 49.3237Z" fill="#2D3436"/>
<path opacity="0.13" d="M278.023 68.931C276.586 69.851 274.544 71.2023 272.216 72.9848C269.542 74.9973 266.667 77.1823 264.252 79.9423C260.974 83.6798 259.537 87.3885 258.674 89.5448C250.768 109.727 241.367 131.635 238.693 137.73C237.227 141.065 234.927 146.096 231.879 152.134C233.259 153.945 234.668 155.756 236.048 157.567C240.016 145.464 244.587 132.785 249.819 119.646C255.454 105.53 261.291 92.3335 267.156 80.0573C268.737 78.9935 270.519 77.6423 272.331 75.8885C274.889 73.4448 276.729 70.9723 278.023 68.931Z" fill="#2D3436"/>
<path d="M201.577 152.162C200.513 152.881 198.127 154.549 195.683 157.251C193.153 160.04 191.687 162.656 190.48 164.87C189.531 166.566 188.841 168.061 188.352 169.154C189.1 170.591 190.307 172.805 191.975 175.45C194.936 180.136 197.236 182.666 201.203 187.755C202.871 189.882 205.286 193.074 208.161 197.099C208.621 199.255 209.023 201.526 209.368 203.912C210.058 208.8 210.317 213.342 210.317 217.425C211.381 218.575 213.221 220.242 215.923 221.421C220.408 223.405 224.491 222.83 226.618 222.485C231.333 221.766 234.553 219.667 236.767 218.201C240.792 215.556 243.523 212.394 245.335 209.777C244.961 205.292 244.472 200.664 243.868 195.862C243.351 191.78 242.776 187.812 242.143 183.96C242.086 180.941 241.798 176.83 240.821 172.057C240.016 168.061 239.038 163.404 236.135 157.884C232.512 151.012 227.998 146.844 226.245 145.32C224.692 143.969 223.283 142.962 222.248 142.244C218.051 144.917 214.428 146.585 211.956 147.591C207.356 149.489 205.2 149.776 201.577 152.162Z" fill="white"/>
<path d="M188.812 169.269C189.703 165.876 192.176 162.714 194.303 159.954C196.546 157.079 199.076 154.462 202.095 152.364C202.555 152.047 202.123 151.3 201.663 151.616C198.558 153.772 195.942 156.446 193.642 159.407C191.428 162.254 188.927 165.474 188.007 169.01C187.863 169.585 188.697 169.786 188.812 169.269Z" fill="#111314"/>
<path d="M188.179 169.556C194.102 179.906 201.117 189.624 209.08 198.507C209.454 198.91 210.058 198.306 209.684 197.904C201.778 189.077 194.82 179.417 188.927 169.125C188.639 168.636 187.892 169.067 188.179 169.556Z" fill="#111314"/>
<path d="M212.502 147.993C215.722 145.722 219.258 144.026 223.024 142.933C223.571 142.79 223.341 141.956 222.794 142.1C218.942 143.221 215.348 144.946 212.071 147.246C211.611 147.562 212.042 148.31 212.502 147.993Z" fill="#111314"/>
<path d="M222.306 143.164C236.048 152.737 241.942 169.527 241.281 185.771C241.252 186.317 242.115 186.317 242.143 185.771C242.833 169.182 236.738 152.162 222.737 142.416C222.306 142.1 221.875 142.847 222.306 143.164Z" fill="#111314"/>
<path d="M207.213 196.811C208.708 199.887 208.88 203.711 209.197 207.046C209.542 210.439 209.657 213.86 209.657 217.281C209.657 217.827 210.519 217.827 210.519 217.281C210.548 213.486 210.375 209.691 209.944 205.925C209.599 202.734 209.369 199.284 207.96 196.351C207.702 195.862 206.983 196.294 207.213 196.811Z" fill="#111314"/>
<path d="M210.202 217.453C214.515 222.743 221.875 224.238 228.286 222.6C231.851 221.68 235.157 219.926 238.118 217.741C241.08 215.556 243.897 213.026 245.565 209.691C245.823 209.202 245.076 208.771 244.817 209.259C243.207 212.451 240.505 214.895 237.658 216.993C234.898 219.035 231.822 220.702 228.487 221.651C222.22 223.405 215.003 222.053 210.777 216.85C210.461 216.418 209.857 217.022 210.202 217.453Z" fill="#111314"/>
<path d="M241.597 184.477C243.006 192.901 244.386 201.325 244.875 209.835C244.904 210.381 245.766 210.381 245.737 209.835C245.22 201.238 243.84 192.728 242.431 184.247C242.345 183.701 241.511 183.931 241.597 184.477Z" fill="#111314"/>
<path opacity="0.13" d="M213.594 146.844C216.785 150.61 221.155 156.475 224.807 164.41C230.154 176.025 231.218 186.059 232.023 194.598C232.655 201.095 233 210.151 231.735 220.961C234.179 219.898 237.629 218.058 240.964 214.866C242.804 213.084 244.184 211.301 245.219 209.749C244.27 201.728 243.322 193.678 242.373 185.656C242.545 179.044 241.51 173.696 240.533 170.074C237.514 158.861 231.707 151.645 229.752 149.374C227.078 146.24 224.462 143.94 222.535 142.416C219.545 143.911 216.584 145.378 213.594 146.844Z" fill="#2D3436"/>
<path opacity="0.14" d="M235.013 156.906C234.496 157.05 235.703 161.736 236.853 168.665C236.853 168.665 238.607 179.187 238.981 189.365C239.24 196.092 238.895 205.925 235.876 218.143C237.256 217.453 238.952 216.447 240.706 215.038C242.833 213.313 244.357 211.502 245.392 210.065C245.018 198.478 244.041 192.47 243.121 189.077C242.948 188.416 242.488 186.863 242.115 184.678C241.425 180.596 241.77 178.842 241.396 175.45C241.108 172.747 240.562 170.965 239.556 167.658C238.032 162.685 235.588 156.733 235.013 156.906Z" fill="#2D3436"/>
<path d="M201.175 104.868C199.278 105.932 196.863 107.542 194.534 109.986C189.704 115.132 188.152 120.882 187.605 123.728C187.174 123.671 185.995 123.585 185.047 124.332C183.638 125.425 183.609 127.581 184.155 128.846C184.357 129.306 184.644 129.68 185.248 130.427C185.967 131.318 186.427 131.865 187.174 132.181C187.49 132.325 188.209 132.526 189.244 132.296C189.56 133.245 190.078 134.567 190.854 136.091C191.86 138.046 193.384 140.95 196.432 143.48C197.323 144.227 198.703 145.205 200.572 146.096C201.262 146.987 202.527 148.856 202.67 151.386C202.958 155.842 199.709 159.551 196.633 161.19C191.285 164.036 185.478 161.19 183.35 160.126C182.2 159.551 176.422 156.561 174.007 150.006C171.074 142.1 174.898 134.193 177.169 129.478C179.469 124.735 180.533 125.051 182.287 120.422C184.615 114.298 183.379 112.142 186.053 107.456C187.088 105.616 189.187 101.936 193.585 100.211C197.352 98.7447 200.83 99.4922 202.325 99.9235C203.562 99.176 205.747 98.1122 208.507 98.1122C215.062 98.1122 219.259 104.322 220.265 105.817C223.255 110.216 221.674 111.567 224.348 117.748C227.712 125.54 230.989 125.08 234.008 132.382C235.474 135.947 237.918 141.841 235.215 147.476C232.427 153.284 226.073 154.98 225.268 155.181C223.802 155.555 219.863 156.532 215.924 154.434C215.55 154.232 210.605 151.53 210.203 146.901C210.059 145.205 210.548 143.623 210.663 143.278C211.267 141.41 212.302 140.202 212.618 139.8C213.854 138.276 215.349 135.458 216.384 129.852C216.873 129.823 217.678 129.708 218.483 129.248C220.179 128.271 220.984 126.287 220.898 124.562C220.869 124.16 220.754 121.86 219.087 121.083C218.397 120.767 217.678 120.853 217.275 120.94C211.928 115.535 206.552 110.216 201.175 104.868Z" fill="#0010F7"/>
<path d="M201.175 104.839C197.984 106.708 195.77 108.778 194.361 110.302C189.675 115.391 188.18 120.709 187.864 121.946C187.663 122.722 187.519 123.354 187.461 123.814C187.145 123.699 186.426 123.498 185.708 123.814C184.615 124.303 184.385 125.626 184.27 126.287C183.983 127.811 184.558 129.018 184.788 129.478C185.104 130.139 185.621 131.203 186.858 131.749C187.864 132.209 188.813 132.037 189.215 131.951C189.618 132.986 190.193 134.423 191.084 136.062C192.435 138.649 193.7 141.036 196.144 143.163C197.093 143.997 198.645 145.147 200.888 146.038C201.348 146.757 201.98 147.878 202.325 149.344C202.613 150.494 202.67 151.472 202.641 152.219C203.389 152.593 204.798 153.168 206.551 153.139C209.915 153.082 212.129 150.983 212.646 150.466C212.1 148.827 211.611 146.814 211.41 144.486C211.324 143.422 211.295 142.416 211.295 141.496C212.186 140.547 213.279 139.196 214.17 137.384C215.751 134.251 216.01 131.347 216.039 129.651C216.441 129.708 217.246 129.794 218.109 129.449C219.316 128.961 219.863 127.897 220.179 127.293C220.265 127.149 221.473 124.677 220.38 122.233C220.121 121.687 219.69 120.681 218.828 120.594C218.195 120.537 217.678 121.026 217.476 121.227C216.298 119.818 214.084 117.202 210.979 113.608C208.305 110.474 206.609 108.519 203.763 106.507C202.728 105.759 201.808 105.213 201.175 104.839Z" fill="white"/>
<path d="M197.207 135.343C196.92 136.005 198.271 137.183 198.903 137.672C200.226 138.65 201.635 138.793 202.152 138.822C202.756 138.88 204.74 139.023 206.551 137.73C206.982 137.413 208.19 136.58 208.65 135.027C208.966 133.906 208.88 132.353 208.276 132.095C207.816 131.922 207.385 132.497 206.407 133.187C204.682 134.366 202.9 134.653 201.376 134.883C198.788 135.286 197.495 134.768 197.207 135.343Z" fill="#111314"/>
<path d="M188.094 128.702C189.129 133.015 190.797 137.241 193.557 140.748C196 143.882 199.623 146.901 203.849 146.498C207.759 146.125 210.95 143.077 213.02 139.972C215.464 136.35 216.643 132.008 216.528 127.638C216.499 127.092 215.637 127.092 215.665 127.638C215.78 131.635 214.745 135.545 212.647 138.937C210.663 142.128 207.385 145.492 203.389 145.665C199.163 145.837 195.684 142.387 193.442 139.167C191.199 135.947 189.819 132.238 188.899 128.443C188.784 127.926 187.95 128.156 188.094 128.702Z" fill="#111314"/>
<path d="M200.312 146.096C201.52 147.936 202.123 149.948 202.123 152.162C202.123 152.708 202.986 152.708 202.986 152.162C202.986 149.833 202.325 147.62 201.06 145.665C200.772 145.176 200.025 145.607 200.312 146.096Z" fill="#111314"/>
<path d="M202.527 152.507C206.034 154.52 210.577 153.542 212.963 150.322C213.308 149.891 212.561 149.46 212.216 149.891C210.088 152.737 206.006 153.542 202.958 151.76C202.469 151.501 202.038 152.249 202.527 152.507Z" fill="#111314"/>
<path d="M210.806 142.244C210.835 144.86 211.237 147.447 212.071 149.949C212.244 150.466 213.077 150.236 212.905 149.719C212.129 147.275 211.697 144.802 211.669 142.244C211.669 141.669 210.806 141.669 210.806 142.244Z" fill="#111314"/>
<path d="M188.956 131.433C188.583 131.836 187.663 131.692 187.231 131.462C186.886 131.29 186.57 131.031 186.311 130.772C185.736 130.226 185.276 129.565 184.989 128.846C184.414 127.495 184.155 123.613 186.714 124.303C187.26 124.447 187.49 123.613 186.944 123.47C183.781 122.636 183.293 126.833 184.098 128.932C184.73 130.628 187.634 134.136 189.589 132.037C189.934 131.635 189.33 131.031 188.956 131.433Z" fill="#111314"/>
<path d="M217.85 121.371C218.195 120.221 219.69 122.435 219.862 122.837C220.207 123.757 220.322 124.764 220.179 125.741C219.949 127.696 218.396 129.565 216.24 129.019C215.694 128.875 215.464 129.709 216.01 129.852C219.489 130.744 221.357 127.121 221.041 124.16C220.897 122.866 220.38 121.199 219.144 120.509C218.339 120.077 217.304 120.192 217.016 121.112C216.844 121.687 217.677 121.889 217.85 121.371Z" fill="#111314"/>
<path d="M192.032 115.276C192.981 113.465 194.648 112.286 196.661 111.999C197.207 111.912 196.977 111.079 196.431 111.165C194.217 111.481 192.319 112.861 191.284 114.845C191.026 115.334 191.773 115.765 192.032 115.276Z" fill="#111314"/>
<path d="M205.315 110.848C207.73 110.273 210.145 111.481 211.237 113.666C211.496 114.155 212.215 113.723 211.985 113.235C210.72 110.676 207.845 109.353 205.085 110.015C204.539 110.158 204.769 110.992 205.315 110.848Z" fill="#111314"/>
<path d="M199.047 114.385C199.594 117.433 199.737 120.566 199.421 123.671C199.306 124.62 198.846 125.971 199.277 126.92C199.737 127.955 200.974 128.846 201.75 129.651C202.124 130.054 202.756 129.45 202.354 129.048C201.836 128.501 201.319 127.984 200.801 127.438C199.996 126.604 199.91 126.345 200.082 125.138C200.226 124.045 200.37 122.924 200.427 121.803C200.542 119.244 200.341 116.685 199.881 114.184C199.795 113.609 198.961 113.839 199.047 114.385Z" fill="#111314"/>
<path d="M195.425 121.773C194.994 121.083 194.793 120.336 194.85 119.531C194.85 119.358 194.965 118.611 195.109 118.582C195.195 118.582 195.339 119.588 195.368 119.703C195.425 120.077 195.454 120.479 195.454 120.853C195.454 120.968 195.425 121.917 195.425 121.342C195.397 120.508 195.454 119.674 195.483 118.841C195.195 118.869 194.908 118.927 194.649 118.956C194.793 119.847 194.879 120.738 194.879 121.658C195.167 121.658 195.454 121.658 195.742 121.658C195.742 121.543 195.742 121.428 195.742 121.313C195.742 120.767 194.879 120.767 194.879 121.313C194.879 121.428 194.879 121.543 194.879 121.658C194.879 122.204 195.742 122.204 195.742 121.658C195.742 120.681 195.655 119.703 195.483 118.726C195.397 118.237 194.649 118.381 194.649 118.841C194.62 119.761 194.505 120.767 194.62 121.687C194.678 122.118 194.879 122.521 195.368 122.607C196.805 122.894 196.374 120.077 196.259 119.387C196.173 118.841 196.087 118.007 195.569 117.691C195.138 117.432 194.678 117.691 194.419 118.093C193.7 119.301 194.103 121.083 194.764 122.176C194.965 122.664 195.713 122.233 195.425 121.773Z" fill="#111314"/>
<path d="M208.707 120.25C208.276 119.56 208.075 118.812 208.132 118.007C208.132 117.835 208.247 117.087 208.391 117.059C208.477 117.059 208.621 118.065 208.65 118.18C208.707 118.554 208.736 118.956 208.736 119.33C208.736 119.445 208.707 120.394 208.707 119.819C208.678 118.985 208.736 118.151 208.765 117.317C208.477 117.346 208.19 117.404 207.931 117.432C208.075 118.324 208.161 119.215 208.161 120.135C208.448 120.135 208.736 120.135 209.023 120.135C209.023 120.02 209.023 119.905 209.023 119.79C209.023 119.244 208.161 119.244 208.161 119.79C208.161 119.905 208.161 120.02 208.161 120.135C208.161 120.681 209.023 120.681 209.023 120.135C209.023 119.157 208.937 118.18 208.765 117.202C208.678 116.714 207.931 116.857 207.931 117.317C207.902 118.237 207.787 119.244 207.902 120.164C207.96 120.595 208.161 120.997 208.65 121.084C210.087 121.371 209.656 118.554 209.541 117.864C209.455 117.317 209.368 116.484 208.851 116.167C208.42 115.909 207.96 116.167 207.701 116.57C206.982 117.777 207.385 119.56 208.046 120.652C208.247 121.17 208.995 120.739 208.707 120.25Z" fill="#111314"/>
<path d="M191.17 124.419C191.716 124.419 191.716 123.556 191.17 123.556C190.623 123.556 190.623 124.419 191.17 124.419Z" fill="#111314"/>
<path d="M194.562 125.051C194.591 125.051 194.62 125.051 194.677 125.051C194.907 125.051 195.109 124.85 195.109 124.62C195.109 124.39 194.907 124.188 194.677 124.188C194.649 124.188 194.62 124.188 194.562 124.188C194.332 124.188 194.131 124.39 194.131 124.62C194.131 124.85 194.304 125.051 194.562 125.051Z" fill="#111314"/>
<path d="M192.55 127.696C193.096 127.696 193.096 126.833 192.55 126.833C192.004 126.833 191.975 127.696 192.55 127.696Z" fill="#111314"/>
<path d="M208.879 123.987C208.908 123.987 208.937 123.987 208.994 123.987C209.224 123.987 209.426 123.786 209.426 123.556C209.426 123.326 209.224 123.125 208.994 123.125C208.966 123.125 208.937 123.125 208.879 123.125C208.649 123.125 208.448 123.326 208.448 123.556C208.448 123.786 208.621 123.987 208.879 123.987Z" fill="#111314"/>
<path d="M212.042 121.86C212.589 121.86 212.589 120.998 212.042 120.998C211.496 120.998 211.496 121.86 212.042 121.86Z" fill="#111314"/>
<path d="M211.611 124.188C211.639 124.188 211.668 124.188 211.726 124.188C211.956 124.188 212.157 123.987 212.157 123.757C212.157 123.527 211.956 123.326 211.726 123.326C211.697 123.326 211.668 123.326 211.611 123.326C211.381 123.326 211.179 123.527 211.179 123.757C211.208 123.987 211.381 124.188 211.611 124.188Z" fill="#111314"/>
<path d="M197.927 136.004C197.467 135.343 196.719 134.394 197.035 133.532C197.409 132.554 198.588 132.698 199.364 132.813C200.313 132.957 201.089 133.129 202.009 132.842C202.757 132.612 203.418 132.123 204.108 131.749C205.747 130.829 207.673 130.743 208.19 132.899C209.657 138.793 199.249 140.461 197.639 135.286C197.467 134.768 196.633 134.969 196.805 135.516C198.789 141.869 211.094 139.512 208.938 132.468C208.564 131.289 207.673 130.283 206.408 130.139C204.338 129.938 202.987 132.008 201.003 132.152C199.537 132.267 197.754 131.146 196.575 132.526C195.512 133.762 196.374 135.343 197.15 136.436C197.495 136.896 198.243 136.464 197.927 136.004Z" fill="#111314"/>
<path d="M196.259 134.366C196.892 136.12 200.054 135.574 201.434 135.373C204.079 134.97 206.494 133.82 208.536 132.124C208.967 131.779 208.363 131.146 207.932 131.52C206.437 132.785 204.712 133.705 202.814 134.223C201.981 134.453 197.582 135.43 197.122 134.165C196.892 133.619 196.058 133.849 196.259 134.366Z" fill="#111314"/>
<path d="M201.376 146.987C204.74 147.85 209.225 145.722 211.123 142.934C211.439 142.474 210.691 142.042 210.375 142.502C208.708 144.946 204.539 146.901 201.606 146.154C201.06 146.01 200.83 146.844 201.376 146.987Z" fill="#111314"/>
<path d="M201.692 147.246C204.682 149.115 209.598 146.47 211.036 143.624C211.295 143.135 210.547 142.704 210.288 143.193C209.081 145.608 204.682 148.109 202.123 146.528C201.634 146.211 201.203 146.959 201.692 147.246Z" fill="#111314"/>
<path opacity="0.2" d="M213.624 116.771C213.825 117.806 214.084 119.444 214.256 121.428C214.659 126.718 215.349 135.573 210.001 141.467C208.851 142.732 206.407 144.974 201.894 146.239C203.331 146.182 205.085 146.009 206.982 145.521C207.931 145.291 208.794 145.003 209.57 144.687C209.685 147.246 209.771 149.804 209.886 152.363C210.864 151.731 211.812 151.127 212.79 150.494C211.467 147.562 211.467 145.291 211.64 143.853C211.899 141.841 212.646 140.202 213.394 138.563C214.055 137.126 214.745 135.976 215.291 135.171C215.349 135.774 215.492 136.407 215.895 137.011C217.649 139.627 223.14 139.886 226.59 137.643C229.781 135.573 231.334 131.376 230.529 127.063C231.075 127.523 231.65 128.069 232.196 128.731C232.627 129.248 233.749 130.743 235.301 136.004C235.79 137.643 236.02 138.477 236.164 139.311C236.336 140.461 236.652 142.646 236.049 145.118C235.014 149.373 231.937 151.817 231.017 152.507C230.356 152.996 228.344 154.462 225.325 155.152C223.887 155.468 219.575 156.503 215.521 154.146C213.997 153.254 213.164 152.593 212.704 151.788C212.215 150.897 212.157 150.063 212.1 149.431C211.841 145.492 211.726 143.508 211.985 142.157C212.761 138.247 214.515 137.844 215.492 133.388C215.837 131.778 215.924 130.427 215.952 129.564C216.326 129.622 216.901 129.679 217.591 129.507C219.029 129.133 219.747 127.954 220.006 127.523C221.041 125.884 221.501 122.952 219.891 121.601C219.661 121.399 218.856 120.796 217.304 120.911C216.125 119.531 214.889 118.151 213.624 116.771Z" fill="#2D3436"/>
<path opacity="0.13" d="M199.996 126.086C201.462 126.517 202.957 126.977 204.423 127.409C204.05 127.754 203.676 128.07 203.273 128.415C202.9 128.731 202.555 128.99 202.181 129.277C201.721 128.932 201.06 128.329 200.542 127.409C200.255 126.92 200.082 126.46 199.996 126.086Z" fill="#2D3436"/>
<path opacity="0.16" d="M176.939 129.679C173.805 140.748 176.134 149.689 180.82 151.644C184.5 153.168 191.141 151.012 192.378 147.246C192.55 146.757 192.722 145.894 192.061 143.249C191.486 140.921 190.307 137.413 187.662 133.417C187.202 133.129 186.599 132.669 186.024 131.979C185.017 130.743 184.73 129.421 184.644 128.788C185.477 129.651 186.685 130.743 187.461 130.398C188.209 130.053 188.669 129.018 188.41 127.983C188.669 129.306 189.071 131.117 189.819 133.216C190.796 136.004 191.774 138.707 194.045 141.266C195.08 142.444 197.121 144.371 200.571 145.751C201.146 146.469 202.21 148.022 202.555 150.293C202.612 150.638 202.814 152.219 202.296 154.203C202.181 154.663 201.491 157.164 199.22 159.321C196.575 161.851 193.413 162.311 192.378 162.454C184.586 163.489 178.549 156.676 177.485 155.497C176.421 154.289 174.667 152.277 173.661 149.172C172.051 144.227 173.287 139.771 174.179 136.522C175.012 133.474 176.134 131.174 176.939 129.679Z" fill="#2D3436"/>
</g>
<defs>
<clipPath id="clip0">
<rect width="418" height="333" fill="white"/>
</clipPath>
</defs>
</svg>
