<svg width="12" height="12" viewBox="0 0 12 12" fill="none" xmlns="http://www.w3.org/2000/svg">
<path d="M8.268 12V7.356H9.82333L10.056 5.55067H8.268V4.39867C8.268 3.876 8.41333 3.51933 9.16267 3.51933H10.1187V1.90467C9.65587 1.85556 9.19073 1.83175 8.72533 1.83333C7.34733 1.83333 6.404 2.67467 6.404 4.22V5.55067H4.84533V7.356H6.404V12H0.666667C0.489856 12 0.320286 11.9298 0.195262 11.8047C0.0702379 11.6797 0 11.5101 0 11.3333V0.666667C0 0.489856 0.0702379 0.320286 0.195262 0.195262C0.320286 0.0702379 0.489856 0 0.666667 0H11.3333C11.5101 0 11.6797 0.0702379 11.8047 0.195262C11.9298 0.320286 12 0.489856 12 0.666667V11.3333C12 11.5101 11.9298 11.6797 11.8047 11.8047C11.6797 11.9298 11.5101 12 11.3333 12H8.268V12Z" fill="#636E72"/>
</svg>
