<svg width="14" height="14" viewBox="0 0 14 14" fill="none" xmlns="http://www.w3.org/2000/svg">
<path d="M7.00001 0.333313C8.81134 0.333313 9.03734 0.33998 9.74801 0.373313C10.458 0.406646 10.9413 0.51798 11.3667 0.683313C11.8067 0.852646 12.1773 1.08198 12.548 1.45198C12.887 1.78524 13.1493 2.18837 13.3167 2.63331C13.4813 3.05798 13.5933 3.54198 13.6267 4.25198C13.658 4.96265 13.6667 5.18865 13.6667 6.99998C13.6667 8.81131 13.66 9.03731 13.6267 9.74798C13.5933 10.458 13.4813 10.9413 13.3167 11.3666C13.1498 11.8118 12.8874 12.2151 12.548 12.548C12.2147 12.8869 11.8115 13.1491 11.3667 13.3166C10.942 13.4813 10.458 13.5933 9.74801 13.6266C9.03734 13.658 8.81134 13.6666 7.00001 13.6666C5.18868 13.6666 4.96268 13.66 4.25201 13.6266C3.54201 13.5933 3.05868 13.4813 2.63334 13.3166C2.18823 13.1496 1.78503 12.8873 1.45201 12.548C1.11295 12.2148 0.850631 11.8116 0.683344 11.3666C0.51801 10.942 0.406677 10.458 0.373343 9.74798C0.34201 9.03731 0.333344 8.81131 0.333344 6.99998C0.333344 5.18865 0.34001 4.96265 0.373343 4.25198C0.406677 3.54131 0.51801 3.05865 0.683344 2.63331C0.850168 2.1881 1.11255 1.78486 1.45201 1.45198C1.78512 1.1128 2.1883 0.850466 2.63334 0.683313C3.05868 0.51798 3.54134 0.406646 4.25201 0.373313C4.96268 0.34198 5.18868 0.333313 7.00001 0.333313ZM7.00001 3.66665C6.11596 3.66665 5.26811 4.01784 4.64299 4.64296C4.01787 5.26808 3.66668 6.11592 3.66668 6.99998C3.66668 7.88403 4.01787 8.73188 4.64299 9.357C5.26811 9.98212 6.11596 10.3333 7.00001 10.3333C7.88407 10.3333 8.73191 9.98212 9.35703 9.357C9.98215 8.73188 10.3333 7.88403 10.3333 6.99998C10.3333 6.11592 9.98215 5.26808 9.35703 4.64296C8.73191 4.01784 7.88407 3.66665 7.00001 3.66665V3.66665ZM11.3333 3.49998C11.3333 3.27897 11.2455 3.067 11.0893 2.91072C10.933 2.75444 10.721 2.66665 10.5 2.66665C10.279 2.66665 10.067 2.75444 9.91075 2.91072C9.75447 3.067 9.66668 3.27897 9.66668 3.49998C9.66668 3.72099 9.75447 3.93296 9.91075 4.08924C10.067 4.24552 10.279 4.33331 10.5 4.33331C10.721 4.33331 10.933 4.24552 11.0893 4.08924C11.2455 3.93296 11.3333 3.72099 11.3333 3.49998ZM7.00001 4.99998C7.53044 4.99998 8.03915 5.21069 8.41422 5.58577C8.7893 5.96084 9.00001 6.46955 9.00001 6.99998C9.00001 7.53041 8.7893 8.03912 8.41422 8.41419C8.03915 8.78927 7.53044 8.99998 7.00001 8.99998C6.46958 8.99998 5.96087 8.78927 5.5858 8.41419C5.21072 8.03912 5.00001 7.53041 5.00001 6.99998C5.00001 6.46955 5.21072 5.96084 5.5858 5.58577C5.96087 5.21069 6.46958 4.99998 7.00001 4.99998V4.99998Z" fill="#636E72"/>
</svg>
