<svg width="12" height="12" viewBox="0 0 12 12" fill="none" xmlns="http://www.w3.org/2000/svg">
<path d="M10.2233 10.226H8.44667V7.44133C8.44667 6.77733 8.43333 5.92267 7.52 5.92267C6.594 5.92267 6.45267 6.64533 6.45267 7.39267V10.226H4.67533V4.5H6.382V5.28H6.40533C6.644 4.83067 7.224 4.35533 8.09067 4.35533C9.89067 4.35533 10.224 5.54067 10.224 7.08267V10.226H10.2233ZM2.66867 3.71667C2.53304 3.71684 2.39871 3.69025 2.27338 3.6384C2.14804 3.58656 2.03418 3.51049 1.9383 3.41456C1.84243 3.31862 1.76644 3.20471 1.71467 3.07934C1.66291 2.95398 1.6364 2.81963 1.63667 2.684C1.6368 2.47989 1.69745 2.2804 1.81096 2.11076C1.92447 1.94113 2.08573 1.80896 2.27435 1.73097C2.46298 1.65298 2.67049 1.63268 2.87065 1.67263C3.07082 1.71258 3.25464 1.81098 3.39887 1.9554C3.54311 2.09983 3.64128 2.28377 3.68097 2.48399C3.72066 2.6842 3.70009 2.89169 3.62185 3.08021C3.54362 3.26873 3.41125 3.42983 3.24146 3.54311C3.07168 3.6564 2.87211 3.7168 2.668 3.71667H2.66867ZM3.55933 10.226H1.77733V4.5H3.56V10.226H3.55933ZM11.1133 0H0.886C0.395333 0 0 0.386667 0 0.864667V11.1353C0 11.6133 0.396 12 0.885333 12H11.1107C11.6 12 12 11.6133 12 11.1353V0.864667C12 0.386667 11.6 0 11.1107 0H11.1127H11.1133Z" fill="#636E72"/>
</svg>
