<svg width="14" height="12" viewBox="0 0 14 12" fill="none" xmlns="http://www.w3.org/2000/svg">
<path d="M13.7747 1.77068C13.2657 1.99581 12.726 2.14366 12.1733 2.20935C12.7558 1.86097 13.1918 1.31269 13.4 0.666679C12.8533 0.992012 12.254 1.22001 11.6293 1.34335C11.2097 0.894398 10.6536 0.596654 10.0473 0.496402C9.44104 0.39615 8.81863 0.499006 8.27685 0.788981C7.73507 1.07896 7.30426 1.5398 7.05141 2.09987C6.79857 2.65995 6.73784 3.28787 6.87867 3.88601C5.77008 3.83045 4.68556 3.54236 3.69553 3.04045C2.7055 2.53855 1.83209 1.83404 1.132 0.972679C0.884198 1.39831 0.753975 1.88216 0.754671 2.37468C0.754671 3.34135 1.24667 4.19535 1.99467 4.69535C1.55201 4.68141 1.11909 4.56187 0.732005 4.34668V4.38135C0.732138 5.02515 0.954917 5.64909 1.36257 6.14739C1.77022 6.64568 2.33766 6.98766 2.96867 7.11535C2.55775 7.2267 2.12688 7.24312 1.70867 7.16335C1.88658 7.7175 2.23334 8.20214 2.7004 8.54942C3.16746 8.89669 3.73142 9.08921 4.31334 9.10001C3.73499 9.55423 3.07279 9.89 2.36459 10.0881C1.65639 10.2863 0.91609 10.3428 0.186005 10.2547C1.46047 11.0743 2.94407 11.5094 4.45934 11.508C9.588 11.508 12.3927 7.25935 12.3927 3.57468C12.3927 3.45468 12.3893 3.33335 12.384 3.21468C12.9299 2.82012 13.4011 2.33136 13.7753 1.77135L13.7747 1.77068Z" fill="#636E72"/>
</svg>
