<svg width="14" height="14" viewBox="0 0 14 14" fill="none" xmlns="http://www.w3.org/2000/svg">
<path d="M0.335989 13.6666L1.23732 10.3546C0.643414 9.33655 0.331386 8.17864 0.333322 6.99998C0.333322 3.31798 3.31799 0.333313 6.99999 0.333313C10.682 0.333313 13.6667 3.31798 13.6667 6.99998C13.6667 10.682 10.682 13.6666 6.99999 13.6666C5.82184 13.6685 4.66443 13.3568 3.64666 12.7633L0.335989 13.6666ZM4.59399 3.87198C4.5079 3.87733 4.42377 3.9 4.34666 3.93865C4.27434 3.9796 4.20832 4.0308 4.15066 4.09065C4.07066 4.16598 4.02532 4.23131 3.97666 4.29465C3.73026 4.61531 3.59773 5.00893 3.59999 5.41331C3.60132 5.73998 3.68666 6.05798 3.81999 6.35531C4.09266 6.95665 4.54132 7.59331 5.13399 8.18331C5.27666 8.32531 5.41599 8.46798 5.56599 8.60065C6.30158 9.24829 7.17816 9.71534 8.12599 9.96465L8.50532 10.0226C8.62866 10.0293 8.75199 10.02 8.87599 10.014C9.07015 10.004 9.25973 9.95138 9.43132 9.85998C9.54199 9.80131 9.59399 9.77198 9.68666 9.71331C9.68666 9.71331 9.71532 9.69465 9.76999 9.65331C9.85999 9.58665 9.91532 9.53931 9.98999 9.46131C10.0453 9.40398 10.0933 9.33665 10.13 9.25998C10.182 9.15131 10.234 8.94398 10.2553 8.77131C10.2713 8.63931 10.2667 8.56731 10.2647 8.52265C10.262 8.45131 10.2027 8.37731 10.138 8.34598L9.74999 8.17198C9.74999 8.17198 9.16999 7.91931 8.81599 7.75798C8.77866 7.74171 8.73867 7.73244 8.69799 7.73065C8.65238 7.72596 8.60629 7.73109 8.56282 7.7457C8.51936 7.7603 8.47952 7.78404 8.44599 7.81531V7.81398C8.44266 7.81398 8.39799 7.85198 7.91599 8.43598C7.88832 8.47315 7.85022 8.50125 7.80652 8.51668C7.76283 8.53212 7.71553 8.53419 7.67066 8.52265C7.62722 8.51103 7.58466 8.49633 7.54332 8.47865C7.46066 8.44398 7.43199 8.43065 7.37532 8.40598L7.37199 8.40465C6.99059 8.23813 6.63747 8.01321 6.32532 7.73798C6.24132 7.66465 6.16332 7.58465 6.08332 7.50731C5.82104 7.25614 5.59246 6.97199 5.40332 6.66198L5.36399 6.59865C5.33574 6.55609 5.3129 6.51018 5.29599 6.46198C5.27066 6.36398 5.33666 6.28531 5.33666 6.28531C5.33666 6.28531 5.49866 6.10798 5.57399 6.01198C5.63671 5.93219 5.69524 5.84919 5.74932 5.76331C5.82799 5.63665 5.85266 5.50665 5.81132 5.40598C5.62466 4.94998 5.43132 4.49598 5.23266 4.04531C5.19332 3.95598 5.07666 3.89198 4.97066 3.87931C4.93466 3.87531 4.89866 3.87131 4.86266 3.86865C4.77313 3.8642 4.68341 3.86509 4.59399 3.87131V3.87198Z" fill="#636E72"/>
</svg>
